<svg xmlns="http://www.w3.org/2000/svg" version="1.1" xmlns:xlink="http://www.w3.org/1999/xlink" xmlns:svgjs="http://svgjs.dev/svgjs" viewBox="0 0 14.251108625401207 3.2558188117892204"><g transform="matrix(1,0,0,1,3.401618717082741,0.5845727999551279)"><rect width="14.251108625401207" height="14.251108625401207" x="-3.401618717082741" y="-6.082217706761121" fill="#ffffff"></rect><g><path d=" M 0.9555 0.007499999999999618 L 0.9555 0.037499999999999645 Q 0.927 0.04349999999999965 0.89475 0.07199999999999962 Q 0.8625 0.1004999999999997 0.837 0.1679999999999997 L 0.4845 1.0769999999999997 Q 0.4815 1.0769999999999997 0.47850000000000004 1.0769999999999997 Q 0.47550000000000003 1.0769999999999997 0.47250000000000003 1.0769999999999997 Q 0.46950000000000003 1.0769999999999997 0.4665 1.0769999999999997 Q 0.4635 1.0769999999999997 0.4605 1.0769999999999997 L 0.0945 0.13349999999999962 Q 0.07200000000000001 0.07649999999999968 0.043500000000000004 0.057749999999999746 Q 0.015 0.0389999999999997 -0.009000000000000001 0.037499999999999645 L -0.009000000000000001 0.007499999999999618 Q 0.021 0.008999999999999675 0.06525 0.010499999999999732 Q 0.1095 0.011999999999999567 0.1515 0.011999999999999567 Q 0.21 0.011999999999999567 0.261 0.010499999999999732 Q 0.312 0.008999999999999675 0.3435 0.007499999999999618 L 0.3435 0.037499999999999645 Q 0.2925 0.0389999999999997 0.26625 0.049499999999999655 Q 0.24 0.05999999999999961 0.23775000000000002 0.0862499999999996 Q 0.23550000000000001 0.1124999999999996 0.255 0.16349999999999965 L 0.534 0.9029999999999997 L 0.51 0.9284999999999997 L 0.771 0.2504999999999996 Q 0.8025 0.16949999999999965 0.801 0.1237499999999997 Q 0.7995 0.07799999999999963 0.7665000000000001 0.05849999999999955 Q 0.7335 0.0389999999999997 0.6705 0.037499999999999645 L 0.6705 0.007499999999999618 Q 0.714 0.008999999999999675 0.759 0.010499999999999732 Q 0.804 0.011999999999999567 0.843 0.011999999999999567 Q 0.882 0.011999999999999567 0.9075 0.010499999999999732 Q 0.933 0.008999999999999675 0.9555 0.007499999999999618 M 1.731052734375 -4.440892098500626e-16 L 2.097052734375 0.9434999999999997 Q 2.119552734375 1.0004999999999997 2.1480527343749998 1.0192499999999998 Q 2.176552734375 1.0379999999999996 2.200552734375 1.0394999999999996 L 2.200552734375 1.0694999999999997 Q 2.170552734375 1.0664999999999998 2.127052734375 1.0657499999999998 Q 2.083552734375 1.0649999999999997 2.040052734375 1.0649999999999997 Q 1.9815527343750001 1.0649999999999997 1.930552734375 1.0657499999999998 Q 1.879552734375 1.0664999999999998 1.848052734375 1.0694999999999997 L 1.848052734375 1.0394999999999996 Q 1.9245527343750002 1.0364999999999998 1.945552734375 1.0132499999999998 Q 1.966552734375 0.9899999999999997 1.9365527343750002 0.9134999999999996 L 1.657552734375 0.1679999999999997 L 1.681552734375 0.14849999999999963 L 1.420552734375 0.8264999999999997 Q 1.396552734375 0.8864999999999996 1.392052734375 0.9277499999999996 Q 1.387552734375 0.9689999999999996 1.400302734375 0.9929999999999997 Q 1.4130527343750001 1.0169999999999997 1.443802734375 1.0274999999999996 Q 1.474552734375 1.0379999999999996 1.521052734375 1.0394999999999996 L 1.521052734375 1.0694999999999997 Q 1.479052734375 1.0664999999999998 1.433302734375 1.0657499999999998 Q 1.387552734375 1.0649999999999997 1.3485527343750001 1.0649999999999997 Q 1.311052734375 1.0649999999999997 1.284802734375 1.0657499999999998 Q 1.258552734375 1.0664999999999998 1.236052734375 1.0694999999999997 L 1.236052734375 1.0394999999999996 Q 1.266052734375 1.0319999999999996 1.297552734375 1.0042499999999996 Q 1.329052734375 0.9764999999999997 1.3545527343750001 0.9089999999999997 L 1.707052734375 -4.440892098500626e-16 Q 1.7130527343750002 -4.440892098500626e-16 1.719052734375 -4.440892098500626e-16 Q 1.7250527343750002 -4.440892098500626e-16 1.731052734375 -4.440892098500626e-16 M 1.914052734375 0.6374999999999997 L 1.914052734375 0.6674999999999996 L 1.467052734375 0.6674999999999996 L 1.482052734375 0.6374999999999997 L 1.914052734375 0.6374999999999997 M 3.04059521484375 0.007499999999999618 L 3.04059521484375 0.037499999999999645 Q 2.98959521484375 0.0389999999999997 2.9633452148437502 0.04874999999999963 Q 2.93709521484375 0.05849999999999955 2.9280952148437502 0.08474999999999966 Q 2.91909521484375 0.11099999999999965 2.91909521484375 0.16649999999999965 L 2.91909521484375 0.9104999999999996 Q 2.91909521484375 0.9644999999999997 2.9280952148437502 0.9914999999999997 Q 2.93709521484375 1.0184999999999997 2.9633452148437502 1.0274999999999996 Q 2.98959521484375 1.0364999999999998 3.04059521484375 1.0394999999999996 L 3.04059521484375 1.0694999999999997 Q 3.00609521484375 1.0664999999999998 2.95434521484375 1.0657499999999998 Q 2.90259521484375 1.0649999999999997 2.85009521484375 1.0649999999999997 Q 2.79159521484375 1.0649999999999997 2.7405952148437502 1.0657499999999998 Q 2.68959521484375 1.0664999999999998 2.65809521484375 1.0694999999999997 L 2.65809521484375 1.0394999999999996 Q 2.70909521484375 1.0364999999999998 2.73534521484375 1.0274999999999996 Q 2.76159521484375 1.0184999999999997 2.77059521484375 0.9914999999999997 Q 2.77959521484375 0.9644999999999997 2.77959521484375 0.9104999999999996 L 2.77959521484375 0.16649999999999965 Q 2.77959521484375 0.11099999999999965 2.77059521484375 0.08474999999999966 Q 2.76159521484375 0.05849999999999955 2.73534521484375 0.04874999999999963 Q 2.70909521484375 0.0389999999999997 2.65809521484375 0.037499999999999645 L 2.65809521484375 0.007499999999999618 Q 2.68959521484375 0.008999999999999675 2.7405952148437502 0.010499999999999732 Q 2.79159521484375 0.011999999999999567 2.85009521484375 0.011999999999999567 Q 2.90259521484375 0.011999999999999567 2.95434521484375 0.010499999999999732 Q 3.00609521484375 0.008999999999999675 3.04059521484375 0.007499999999999618" fill="url(#gradient-677f2694-d005-4f33-b289-ad3c54e017fe)" fill-rule="nonzero"></path></g><g><path d=" M 0.0645 1.442625 L 0.255 1.909875 L 0.44475000000000003 1.442625 L 0.4995 1.442625 L 0.279 1.975125 L 0.231 1.975125 L 0.00975 1.442625 L 0.0645 1.442625 M 0.6914996337890625 1.982625 Q 0.6494996337890625 1.982625 0.6134996337890625 1.9665 Q 0.5774996337890625 1.950375 0.5512496337890626 1.92225 Q 0.5249996337890626 1.894125 0.5103746337890626 1.857375 Q 0.4957496337890625 1.820625 0.4957496337890625 1.778625 Q 0.4957496337890625 1.723875 0.5208746337890625 1.678125 Q 0.5459996337890625 1.6323750000000001 0.5902496337890625 1.605 Q 0.6344996337890625 1.577625 0.6907496337890625 1.577625 Q 0.7484996337890626 1.577625 0.7916246337890624 1.605375 Q 0.8347496337890625 1.633125 0.8594996337890626 1.6785 Q 0.8842496337890625 1.723875 0.8842496337890625 1.777875 Q 0.8842496337890625 1.783875 0.8842496337890625 1.7895 Q 0.8842496337890625 1.795125 0.8834996337890625 1.798125 L 0.5489996337890625 1.798125 Q 0.5527496337890625 1.840125 0.5726246337890625 1.87275 Q 0.5924996337890625 1.905375 0.6243746337890625 1.9245 Q 0.6562496337890625 1.943625 0.6937496337890625 1.943625 Q 0.7319996337890625 1.943625 0.7661246337890626 1.924125 Q 0.8002496337890626 1.904625 0.8137496337890625 1.873125 L 0.8579996337890625 1.885125 Q 0.8459996337890625 1.912875 0.8212496337890625 1.935375 Q 0.7964996337890625 1.957875 0.7631246337890625 1.97025 Q 0.7297496337890625 1.982625 0.6914996337890625 1.982625 M 0.5474996337890625 1.7613750000000001 L 0.8362496337890626 1.7613750000000001 Q 0.8332496337890625 1.718625 0.8133746337890625 1.686375 Q 0.7934996337890625 1.654125 0.7616246337890625 1.63575 Q 0.7297496337890625 1.617375 0.6914996337890625 1.617375 Q 0.6532496337890625 1.617375 0.6217496337890625 1.63575 Q 0.5902496337890625 1.654125 0.5703746337890625 1.68675 Q 0.5504996337890625 1.7193749999999999 0.5474996337890625 1.7613750000000001 M 0.97273095703125 1.427625 L 1.02373095703125 1.427625 L 1.02373095703125 1.886625 Q 1.02373095703125 1.915875 1.03423095703125 1.9248750000000001 Q 1.04473095703125 1.933875 1.05973095703125 1.933875 Q 1.07323095703125 1.933875 1.08673095703125 1.9308750000000001 Q 1.10023095703125 1.927875 1.10998095703125 1.9248750000000001 L 1.1189809570312501 1.9661250000000001 Q 1.10473095703125 1.9721250000000001 1.08410595703125 1.975875 Q 1.06348095703125 1.979625 1.04848095703125 1.979625 Q 1.01398095703125 1.979625 0.99335595703125 1.959375 Q 0.97273095703125 1.939125 0.97273095703125 1.903875 L 0.97273095703125 1.427625 M 1.18421044921875 1.427625 L 1.23521044921875 1.427625 L 1.23521044921875 1.886625 Q 1.23521044921875 1.915875 1.24571044921875 1.9248750000000001 Q 1.25621044921875 1.933875 1.27121044921875 1.933875 Q 1.28471044921875 1.933875 1.29821044921875 1.9308750000000001 Q 1.31171044921875 1.927875 1.32146044921875 1.9248750000000001 L 1.33046044921875 1.9661250000000001 Q 1.31621044921875 1.9721250000000001 1.29558544921875 1.975875 Q 1.2749604492187498 1.979625 1.25996044921875 1.979625 Q 1.22546044921875 1.979625 1.2048354492187499 1.959375 Q 1.18421044921875 1.939125 1.18421044921875 1.903875 L 1.18421044921875 1.427625 M 1.36193994140625 1.862625 Q 1.36193994140625 1.825875 1.38293994140625 1.79925 Q 1.4039399414062501 1.7726250000000001 1.44106494140625 1.758 Q 1.47818994140625 1.743375 1.5269399414062501 1.743375 Q 1.55543994140625 1.743375 1.58618994140625 1.747875 Q 1.61693994140625 1.752375 1.64093994140625 1.7613750000000001 L 1.64093994140625 1.728375 Q 1.64093994140625 1.6788750000000001 1.61168994140625 1.649625 Q 1.58243994140625 1.6203750000000001 1.53068994140625 1.6203750000000001 Q 1.49918994140625 1.6203750000000001 1.46881494140625 1.6320000000000001 Q 1.43843994140625 1.6436250000000001 1.40543994140625 1.666125 L 1.38593994140625 1.630125 Q 1.42418994140625 1.603875 1.46093994140625 1.5907499999999999 Q 1.4976899414062501 1.577625 1.53593994140625 1.577625 Q 1.60793994140625 1.577625 1.64993994140625 1.618875 Q 1.69193994140625 1.660125 1.69193994140625 1.732875 L 1.69193994140625 1.9136250000000001 Q 1.69193994140625 1.924125 1.69643994140625 1.929 Q 1.70093994140625 1.933875 1.71068994140625 1.934625 L 1.71068994140625 1.975125 Q 1.70243994140625 1.975875 1.69643994140625 1.976625 Q 1.69043994140625 1.977375 1.68743994140625 1.976625 Q 1.66868994140625 1.975875 1.65893994140625 1.964625 Q 1.64918994140625 1.953375 1.64843994140625 1.940625 L 1.64768994140625 1.912125 Q 1.62143994140625 1.945875 1.57943994140625 1.96425 Q 1.53743994140625 1.982625 1.49393994140625 1.982625 Q 1.45643994140625 1.982625 1.42606494140625 1.9665 Q 1.39568994140625 1.950375 1.37881494140625 1.923 Q 1.36193994140625 1.8956250000000001 1.36193994140625 1.862625 M 1.62368994140625 1.892625 Q 1.63193994140625 1.882125 1.63643994140625 1.872375 Q 1.64093994140625 1.862625 1.64093994140625 1.8551250000000001 L 1.64093994140625 1.798125 Q 1.6154399414062501 1.788375 1.58806494140625 1.783125 Q 1.56068994140625 1.777875 1.5329399414062501 1.777875 Q 1.47818994140625 1.777875 1.44443994140625 1.799625 Q 1.41068994140625 1.821375 1.41068994140625 1.858875 Q 1.41068994140625 1.880625 1.4219399414062501 1.89975 Q 1.4331899414062501 1.918875 1.45493994140625 1.93125 Q 1.47668994140625 1.943625 1.50593994140625 1.943625 Q 1.54268994140625 1.943625 1.57456494140625 1.929375 Q 1.60643994140625 1.915125 1.62368994140625 1.892625 M 1.9769307861328127 1.862625 Q 1.9769307861328127 1.825875 1.9979307861328126 1.79925 Q 2.0189307861328127 1.7726250000000001 2.056055786132813 1.758 Q 2.0931807861328124 1.743375 2.1419307861328125 1.743375 Q 2.1704307861328127 1.743375 2.2011807861328125 1.747875 Q 2.231930786132813 1.752375 2.255930786132813 1.7613750000000001 L 2.255930786132813 1.728375 Q 2.255930786132813 1.6788750000000001 2.2266807861328126 1.649625 Q 2.197430786132813 1.6203750000000001 2.1456807861328127 1.6203750000000001 Q 2.114180786132813 1.6203750000000001 2.0838057861328125 1.6320000000000001 Q 2.0534307861328127 1.6436250000000001 2.020430786132813 1.666125 L 2.0009307861328125 1.630125 Q 2.0391807861328126 1.603875 2.0759307861328127 1.5907499999999999 Q 2.1126807861328127 1.577625 2.150930786132813 1.577625 Q 2.2229307861328125 1.577625 2.2649307861328127 1.618875 Q 2.3069307861328125 1.660125 2.3069307861328125 1.732875 L 2.3069307861328125 1.9136250000000001 Q 2.3069307861328125 1.924125 2.3114307861328127 1.929 Q 2.315930786132813 1.933875 2.325680786132813 1.934625 L 2.325680786132813 1.975125 Q 2.3174307861328125 1.975875 2.3114307861328127 1.976625 Q 2.3054307861328125 1.977375 2.302430786132813 1.976625 Q 2.2836807861328126 1.975875 2.2739307861328126 1.964625 Q 2.2641807861328127 1.953375 2.2634307861328127 1.940625 L 2.2626807861328126 1.912125 Q 2.2364307861328125 1.945875 2.1944307861328127 1.96425 Q 2.1524307861328125 1.982625 2.1089307861328126 1.982625 Q 2.0714307861328125 1.982625 2.0410557861328127 1.9665 Q 2.010680786132813 1.950375 1.9938057861328127 1.923 Q 1.9769307861328127 1.8956250000000001 1.9769307861328127 1.862625 M 2.2386807861328126 1.892625 Q 2.2469307861328125 1.882125 2.2514307861328127 1.872375 Q 2.255930786132813 1.862625 2.255930786132813 1.8551250000000001 L 2.255930786132813 1.798125 Q 2.2304307861328128 1.788375 2.2030557861328126 1.783125 Q 2.1756807861328125 1.777875 2.1479307861328127 1.777875 Q 2.0931807861328124 1.777875 2.0594307861328125 1.799625 Q 2.0256807861328125 1.821375 2.0256807861328125 1.858875 Q 2.0256807861328125 1.880625 2.0369307861328125 1.89975 Q 2.0481807861328125 1.918875 2.0699307861328125 1.93125 Q 2.091680786132813 1.943625 2.1209307861328126 1.943625 Q 2.1576807861328127 1.943625 2.1895557861328125 1.929375 Q 2.221430786132813 1.915125 2.2386807861328126 1.892625 M 2.55291796875 1.982625 Q 2.50491796875 1.982625 2.4636679687500003 1.966875 Q 2.42241796875 1.951125 2.3924179687500002 1.918875 L 2.41341796875 1.882875 Q 2.44641796875 1.9136250000000001 2.47979296875 1.9275 Q 2.5131679687500004 1.941375 2.55066796875 1.941375 Q 2.5964179687500004 1.941375 2.62491796875 1.923 Q 2.6534179687500004 1.904625 2.6534179687500004 1.870125 Q 2.6534179687500004 1.846875 2.6395429687500003 1.8345 Q 2.62566796875 1.822125 2.59979296875 1.81425 Q 2.57391796875 1.806375 2.5379179687500004 1.797375 Q 2.49741796875 1.786125 2.47004296875 1.77375 Q 2.4426679687500004 1.7613750000000001 2.4287929687500003 1.74225 Q 2.41491796875 1.723125 2.41491796875 1.692375 Q 2.41491796875 1.654125 2.43404296875 1.629 Q 2.4531679687500003 1.603875 2.4865429687500002 1.5907499999999999 Q 2.51991796875 1.577625 2.5611679687500004 1.577625 Q 2.6061679687500003 1.577625 2.6406679687500003 1.591875 Q 2.6751679687500003 1.606125 2.6969179687500002 1.631625 L 2.67216796875 1.666125 Q 2.6511679687500003 1.642125 2.62229296875 1.6305 Q 2.5934179687500003 1.618875 2.5581679687500003 1.618875 Q 2.5341679687500003 1.618875 2.5124179687500003 1.62525 Q 2.4906679687500004 1.631625 2.4767929687500003 1.64625 Q 2.4629179687500002 1.6608749999999999 2.4629179687500002 1.686375 Q 2.4629179687500002 1.707375 2.47341796875 1.719 Q 2.48391796875 1.730625 2.50491796875 1.7385 Q 2.5259179687500004 1.746375 2.5566679687500002 1.755375 Q 2.60091796875 1.767375 2.63391796875 1.77975 Q 2.66691796875 1.792125 2.68491796875 1.811625 Q 2.7029179687500005 1.8311250000000001 2.7029179687500005 1.8663750000000001 Q 2.7029179687500005 1.921125 2.6616679687500002 1.951875 Q 2.62041796875 1.982625 2.55291796875 1.982625 M 2.9226463623046874 1.982625 Q 2.8746463623046874 1.982625 2.8333963623046876 1.966875 Q 2.7921463623046874 1.951125 2.7621463623046876 1.918875 L 2.7831463623046875 1.882875 Q 2.8161463623046874 1.9136250000000001 2.8495213623046878 1.9275 Q 2.8828963623046877 1.941375 2.9203963623046874 1.941375 Q 2.9661463623046878 1.941375 2.9946463623046875 1.923 Q 3.0231463623046877 1.904625 3.0231463623046877 1.870125 Q 3.0231463623046877 1.846875 3.0092713623046876 1.8345 Q 2.9953963623046875 1.822125 2.9695213623046874 1.81425 Q 2.943646362304688 1.806375 2.9076463623046878 1.797375 Q 2.8671463623046876 1.786125 2.8397713623046874 1.77375 Q 2.8123963623046877 1.7613750000000001 2.7985213623046876 1.74225 Q 2.7846463623046875 1.723125 2.7846463623046875 1.692375 Q 2.7846463623046875 1.654125 2.8037713623046874 1.629 Q 2.8228963623046877 1.603875 2.8562713623046876 1.5907499999999999 Q 2.8896463623046875 1.577625 2.9308963623046878 1.577625 Q 2.9758963623046877 1.577625 3.0103963623046877 1.591875 Q 3.0448963623046876 1.606125 3.0666463623046876 1.631625 L 3.0418963623046875 1.666125 Q 3.0208963623046876 1.642125 2.9920213623046874 1.6305 Q 2.9631463623046876 1.618875 2.9278963623046876 1.618875 Q 2.9038963623046876 1.618875 2.8821463623046877 1.62525 Q 2.8603963623046877 1.631625 2.8465213623046877 1.64625 Q 2.8326463623046876 1.6608749999999999 2.8326463623046876 1.686375 Q 2.8326463623046876 1.707375 2.8431463623046875 1.719 Q 2.8536463623046875 1.730625 2.8746463623046874 1.7385 Q 2.8956463623046877 1.746375 2.9263963623046876 1.755375 Q 2.9706463623046875 1.767375 3.0036463623046874 1.77975 Q 3.0366463623046878 1.792125 3.0546463623046876 1.811625 Q 3.0726463623046874 1.8311250000000001 3.0726463623046874 1.8663750000000001 Q 3.0726463623046874 1.921125 3.0313963623046876 1.951875 Q 2.9901463623046878 1.982625 2.9226463623046874 1.982625 M 3.164124755859375 1.975125 L 3.164124755859375 1.584375 L 3.215124755859375 1.584375 L 3.215124755859375 1.975125 L 3.164124755859375 1.975125 M 3.164124755859375 1.502625 L 3.164124755859375 1.427625 L 3.215124755859375 1.427625 L 3.215124755859375 1.502625 L 3.164124755859375 1.502625 M 3.4633879394531246 1.982625 Q 3.4153879394531246 1.982625 3.374137939453125 1.966875 Q 3.3328879394531246 1.951125 3.3028879394531248 1.918875 L 3.3238879394531247 1.882875 Q 3.3568879394531246 1.9136250000000001 3.390262939453125 1.9275 Q 3.423637939453125 1.941375 3.4611379394531245 1.941375 Q 3.506887939453125 1.941375 3.5353879394531247 1.923 Q 3.563887939453125 1.904625 3.563887939453125 1.870125 Q 3.563887939453125 1.846875 3.550012939453125 1.8345 Q 3.5361379394531247 1.822125 3.5102629394531246 1.81425 Q 3.484387939453125 1.806375 3.448387939453125 1.797375 Q 3.4078879394531247 1.786125 3.3805129394531246 1.77375 Q 3.353137939453125 1.7613750000000001 3.339262939453125 1.74225 Q 3.3253879394531247 1.723125 3.3253879394531247 1.692375 Q 3.3253879394531247 1.654125 3.3445129394531246 1.629 Q 3.363637939453125 1.603875 3.3970129394531248 1.5907499999999999 Q 3.4303879394531247 1.577625 3.471637939453125 1.577625 Q 3.516637939453125 1.577625 3.551137939453125 1.591875 Q 3.585637939453125 1.606125 3.6073879394531247 1.631625 L 3.5826379394531247 1.666125 Q 3.561637939453125 1.642125 3.5327629394531246 1.6305 Q 3.503887939453125 1.618875 3.468637939453125 1.618875 Q 3.444637939453125 1.618875 3.422887939453125 1.62525 Q 3.401137939453125 1.631625 3.387262939453125 1.64625 Q 3.3733879394531248 1.6608749999999999 3.3733879394531248 1.686375 Q 3.3733879394531248 1.707375 3.3838879394531247 1.719 Q 3.3943879394531247 1.730625 3.4153879394531246 1.7385 Q 3.436387939453125 1.746375 3.4671379394531248 1.755375 Q 3.5113879394531247 1.767375 3.5443879394531246 1.77975 Q 3.577387939453125 1.792125 3.5953879394531247 1.811625 Q 3.6133879394531245 1.8311250000000001 3.6133879394531245 1.8663750000000001 Q 3.6133879394531245 1.921125 3.5721379394531247 1.951875 Q 3.530887939453125 1.982625 3.4633879394531246 1.982625 M 3.892366333007812 1.956375 Q 3.886366333007812 1.958625 3.873616333007812 1.964625 Q 3.860866333007812 1.970625 3.842866333007812 1.975125 Q 3.824866333007812 1.979625 3.803866333007812 1.979625 Q 3.7821163330078122 1.979625 3.762991333007812 1.971375 Q 3.743866333007812 1.963125 3.732616333007812 1.94625 Q 3.721366333007812 1.929375 3.721366333007812 1.904625 L 3.721366333007812 1.624875 L 3.667366333007812 1.624875 L 3.667366333007812 1.584375 L 3.721366333007812 1.584375 L 3.721366333007812 1.452375 L 3.772366333007812 1.452375 L 3.772366333007812 1.584375 L 3.862366333007812 1.584375 L 3.862366333007812 1.624875 L 3.772366333007812 1.624875 L 3.772366333007812 1.890375 Q 3.773866333007812 1.911375 3.787741333007812 1.921875 Q 3.801616333007812 1.932375 3.819616333007812 1.932375 Q 3.8406163330078122 1.932375 3.857866333007812 1.9252500000000001 Q 3.875116333007812 1.918125 3.878866333007812 1.915125 L 3.892366333007812 1.956375 M 3.9321328124999995 1.862625 Q 3.9321328124999995 1.825875 3.9531328124999994 1.79925 Q 3.9741328124999993 1.7726250000000001 4.011257812499999 1.758 Q 4.0483828125 1.743375 4.097132812499999 1.743375 Q 4.125632812499999 1.743375 4.1563828124999995 1.747875 Q 4.1871328125 1.752375 4.2111328125 1.7613750000000001 L 4.2111328125 1.728375 Q 4.2111328125 1.6788750000000001 4.1818828125 1.649625 Q 4.152632812499999 1.6203750000000001 4.100882812499999 1.6203750000000001 Q 4.0693828125 1.6203750000000001 4.0390078124999995 1.6320000000000001 Q 4.008632812499999 1.6436250000000001 3.9756328124999993 1.666125 L 3.9561328124999995 1.630125 Q 3.9943828124999996 1.603875 4.031132812499999 1.5907499999999999 Q 4.0678828125 1.577625 4.106132812499999 1.577625 Q 4.1781328124999995 1.577625 4.220132812499999 1.618875 Q 4.262132812499999 1.660125 4.262132812499999 1.732875 L 4.262132812499999 1.9136250000000001 Q 4.262132812499999 1.924125 4.266632812499999 1.929 Q 4.271132812499999 1.933875 4.2808828125 1.934625 L 4.2808828125 1.975125 Q 4.2726328124999995 1.975875 4.266632812499999 1.976625 Q 4.260632812499999 1.977375 4.2576328125 1.976625 Q 4.238882812499999 1.975875 4.2291328125 1.964625 Q 4.219382812499999 1.953375 4.218632812499999 1.940625 L 4.217882812499999 1.912125 Q 4.191632812499999 1.945875 4.149632812499999 1.96425 Q 4.1076328124999995 1.982625 4.0641328125 1.982625 Q 4.026632812499999 1.982625 3.9962578124999992 1.9665 Q 3.9658828124999994 1.950375 3.949007812499999 1.923 Q 3.9321328124999995 1.8956250000000001 3.9321328124999995 1.862625 M 4.193882812499999 1.892625 Q 4.2021328124999995 1.882125 4.2066328125 1.872375 Q 4.2111328125 1.862625 4.2111328125 1.8551250000000001 L 4.2111328125 1.798125 Q 4.1856328125 1.788375 4.1582578125 1.783125 Q 4.1308828124999994 1.777875 4.103132812499999 1.777875 Q 4.0483828125 1.777875 4.0146328124999995 1.799625 Q 3.9808828124999995 1.821375 3.9808828124999995 1.858875 Q 3.9808828124999995 1.880625 3.9921328124999995 1.89975 Q 4.003382812499999 1.918875 4.025132812499999 1.93125 Q 4.0468828125 1.943625 4.076132812499999 1.943625 Q 4.1128828125 1.943625 4.144757812499999 1.929375 Q 4.176632812499999 1.915125 4.193882812499999 1.892625 M 4.708369995117187 1.975125 L 4.657369995117187 1.975125 L 4.657369995117187 1.756875 Q 4.657369995117187 1.687875 4.637119995117187 1.6560000000000001 Q 4.616869995117186 1.624125 4.5733699951171864 1.624125 Q 4.543369995117187 1.624125 4.514119995117187 1.63875 Q 4.484869995117187 1.653375 4.462744995117187 1.6785 Q 4.440619995117187 1.703625 4.430869995117186 1.735875 L 4.430869995117186 1.975125 L 4.379869995117187 1.975125 L 4.379869995117187 1.584375 L 4.426369995117187 1.584375 L 4.426369995117187 1.672875 Q 4.442119995117187 1.6443750000000001 4.467619995117187 1.623 Q 4.493119995117187 1.601625 4.525369995117186 1.589625 Q 4.557619995117187 1.577625 4.592119995117187 1.577625 Q 4.624369995117187 1.577625 4.646869995117187 1.589625 Q 4.6693699951171865 1.601625 4.682869995117187 1.62375 Q 4.696369995117187 1.645875 4.702369995117187 1.677 Q 4.708369995117187 1.708125 4.708369995117187 1.746375 L 4.708369995117187 1.975125 M 4.994125854492187 1.982625 Q 4.951375854492187 1.982625 4.915750854492187 1.9665 Q 4.880125854492187 1.950375 4.853500854492187 1.921875 Q 4.8268758544921875 1.893375 4.812250854492187 1.856625 Q 4.797625854492187 1.8198750000000001 4.797625854492187 1.778625 Q 4.797625854492187 1.723125 4.822375854492187 1.677375 Q 4.847125854492187 1.631625 4.891375854492187 1.604625 Q 4.935625854492187 1.577625 4.993375854492187 1.577625 Q 5.048125854492187 1.577625 5.090125854492187 1.60275 Q 5.1321258544921875 1.627875 5.152375854492187 1.670625 L 5.102875854492187 1.686375 Q 5.086375854492187 1.656375 5.056750854492187 1.6395 Q 5.027125854492187 1.622625 4.9911258544921875 1.622625 Q 4.952125854492187 1.622625 4.9198758544921875 1.642875 Q 4.887625854492187 1.663125 4.868500854492187 1.698375 Q 4.849375854492187 1.733625 4.849375854492187 1.778625 Q 4.849375854492187 1.822875 4.868875854492187 1.858875 Q 4.888375854492187 1.894875 4.920625854492187 1.91625 Q 4.952875854492187 1.937625 4.991875854492187 1.937625 Q 5.017375854492187 1.937625 5.041000854492187 1.928625 Q 5.064625854492187 1.919625 5.082250854492187 1.90425 Q 5.099875854492187 1.888875 5.105875854492187 1.870875 L 5.156125854492187 1.885875 Q 5.145625854492187 1.9136250000000001 5.121250854492187 1.93575 Q 5.096875854492187 1.957875 5.064250854492187 1.97025 Q 5.031625854492187 1.982625 4.994125854492187 1.982625 M 5.4088806152343745 1.982625 Q 5.366880615234375 1.982625 5.330880615234375 1.9665 Q 5.294880615234375 1.950375 5.2686306152343745 1.92225 Q 5.242380615234375 1.894125 5.227755615234375 1.857375 Q 5.213130615234375 1.820625 5.213130615234375 1.778625 Q 5.213130615234375 1.723875 5.238255615234375 1.678125 Q 5.263380615234375 1.6323750000000001 5.307630615234375 1.605 Q 5.351880615234375 1.577625 5.408130615234374 1.577625 Q 5.465880615234375 1.577625 5.509005615234375 1.605375 Q 5.552130615234375 1.633125 5.576880615234375 1.6785 Q 5.601630615234375 1.723875 5.601630615234375 1.777875 Q 5.601630615234375 1.783875 5.601630615234375 1.7895 Q 5.601630615234375 1.795125 5.600880615234375 1.798125 L 5.266380615234374 1.798125 Q 5.2701306152343745 1.840125 5.290005615234374 1.87275 Q 5.309880615234375 1.905375 5.341755615234375 1.9245 Q 5.373630615234375 1.943625 5.4111306152343746 1.943625 Q 5.449380615234375 1.943625 5.483505615234375 1.924125 Q 5.517630615234375 1.904625 5.531130615234375 1.873125 L 5.575380615234375 1.885125 Q 5.563380615234375 1.912875 5.538630615234375 1.935375 Q 5.513880615234375 1.957875 5.4805056152343745 1.97025 Q 5.447130615234375 1.982625 5.4088806152343745 1.982625 M 5.264880615234375 1.7613750000000001 L 5.553630615234375 1.7613750000000001 Q 5.5506306152343745 1.718625 5.530755615234375 1.686375 Q 5.510880615234375 1.654125 5.4790056152343745 1.63575 Q 5.447130615234375 1.617375 5.4088806152343745 1.617375 Q 5.370630615234375 1.617375 5.3391306152343745 1.63575 Q 5.307630615234375 1.654125 5.287755615234375 1.68675 Q 5.2678806152343745 1.7193749999999999 5.264880615234375 1.7613750000000001 M 5.886615600585938 1.975125 L 5.886615600585938 1.584375 L 5.9376156005859375 1.584375 L 5.9376156005859375 1.975125 L 5.886615600585938 1.975125 M 5.886615600585938 1.502625 L 5.886615600585938 1.427625 L 5.9376156005859375 1.427625 L 5.9376156005859375 1.502625 L 5.886615600585938 1.502625 M 6.3861287841796885 1.975125 L 6.335128784179688 1.975125 L 6.335128784179688 1.756875 Q 6.335128784179688 1.687875 6.3148787841796885 1.6560000000000001 Q 6.294628784179688 1.624125 6.251128784179688 1.624125 Q 6.2211287841796885 1.624125 6.191878784179688 1.63875 Q 6.162628784179688 1.653375 6.140503784179688 1.6785 Q 6.118378784179688 1.703625 6.108628784179688 1.735875 L 6.108628784179688 1.975125 L 6.0576287841796885 1.975125 L 6.0576287841796885 1.584375 L 6.1041287841796885 1.584375 L 6.1041287841796885 1.672875 Q 6.119878784179688 1.6443750000000001 6.145378784179688 1.623 Q 6.170878784179688 1.601625 6.203128784179688 1.589625 Q 6.235378784179688 1.577625 6.269878784179689 1.577625 Q 6.302128784179688 1.577625 6.324628784179688 1.589625 Q 6.347128784179688 1.601625 6.3606287841796885 1.62375 Q 6.374128784179688 1.645875 6.380128784179688 1.677 Q 6.3861287841796885 1.708125 6.3861287841796885 1.746375 L 6.3861287841796885 1.975125 M 6.517380981445314 1.975125 L 6.517380981445314 1.624875 L 6.463380981445313 1.624875 L 6.463380981445313 1.584375 L 6.517380981445314 1.584375 L 6.517380981445314 1.5738750000000001 Q 6.517380981445314 1.525875 6.531255981445313 1.4913750000000001 Q 6.545130981445314 1.4568750000000001 6.571005981445314 1.4385 Q 6.596880981445313 1.420125 6.6321309814453135 1.420125 Q 6.6553809814453135 1.420125 6.6771309814453135 1.426875 Q 6.698880981445313 1.4336250000000001 6.714630981445313 1.4448750000000001 L 6.698880981445313 1.481625 Q 6.689130981445313 1.4733749999999999 6.673380981445313 1.4688750000000002 Q 6.657630981445314 1.464375 6.641880981445313 1.464375 Q 6.6066309814453135 1.464375 6.587505981445314 1.4921250000000001 Q 6.568380981445314 1.519875 6.568380981445314 1.572375 L 6.568380981445314 1.584375 L 6.6763809814453134 1.584375 L 6.6763809814453134 1.624875 L 6.568380981445314 1.624875 L 6.568380981445314 1.975125 L 6.517380981445314 1.975125 M 6.908150390625002 1.982625 Q 6.866150390625001 1.982625 6.830525390625001 1.9665 Q 6.794900390625001 1.950375 6.769025390625001 1.92225 Q 6.743150390625002 1.894125 6.728900390625001 1.85775 Q 6.7146503906250015 1.821375 6.7146503906250015 1.780875 Q 6.7146503906250015 1.738875 6.728900390625001 1.7025000000000001 Q 6.743150390625002 1.666125 6.769400390625001 1.638 Q 6.795650390625001 1.609875 6.831275390625001 1.59375 Q 6.866900390625001 1.577625 6.908900390625001 1.577625 Q 6.9509003906250015 1.577625 6.986150390625001 1.59375 Q 7.0214003906250015 1.609875 7.047650390625002 1.638 Q 7.073900390625001 1.666125 7.088150390625001 1.7025000000000001 Q 7.102400390625001 1.738875 7.102400390625001 1.780875 Q 7.102400390625001 1.821375 7.088150390625001 1.85775 Q 7.073900390625001 1.894125 7.048025390625002 1.92225 Q 7.022150390625002 1.950375 6.986525390625001 1.9665 Q 6.9509003906250015 1.982625 6.908150390625002 1.982625 M 6.766400390625002 1.781625 Q 6.766400390625002 1.825125 6.7855253906250015 1.86075 Q 6.804650390625001 1.896375 6.836900390625002 1.917 Q 6.869150390625001 1.937625 6.908150390625002 1.937625 Q 6.947150390625001 1.937625 6.979400390625001 1.916625 Q 7.011650390625001 1.8956250000000001 7.031150390625001 1.85925 Q 7.050650390625001 1.822875 7.050650390625001 1.780125 Q 7.050650390625001 1.736625 7.031150390625001 1.700625 Q 7.011650390625001 1.664625 6.979400390625001 1.6436250000000001 Q 6.947150390625001 1.622625 6.908150390625002 1.622625 Q 6.869150390625001 1.622625 6.837275390625002 1.6443750000000001 Q 6.805400390625001 1.666125 6.7859003906250015 1.70175 Q 6.766400390625002 1.7373750000000001 6.766400390625002 1.781625 M 7.390378417968751 1.629375 Q 7.339378417968751 1.630875 7.300753417968751 1.657875 Q 7.262128417968752 1.684875 7.246378417968751 1.732125 L 7.246378417968751 1.975125 L 7.195378417968752 1.975125 L 7.195378417968752 1.584375 L 7.243378417968752 1.584375 L 7.243378417968752 1.678125 Q 7.263628417968752 1.636875 7.297003417968751 1.611375 Q 7.330378417968752 1.5858750000000001 7.367878417968751 1.582875 Q 7.375378417968752 1.582125 7.381003417968752 1.582125 Q 7.386628417968751 1.582125 7.390378417968751 1.582875 L 7.390378417968751 1.629375 M 8.047388305664064 1.975125 L 7.996388305664064 1.975125 L 7.996388305664064 1.756875 Q 7.996388305664064 1.688625 7.974638305664064 1.656375 Q 7.9528883056640645 1.624125 7.910138305664065 1.624125 Q 7.865888305664065 1.624125 7.831013305664064 1.6556250000000001 Q 7.796138305664064 1.687125 7.781888305664064 1.736625 L 7.781888305664064 1.975125 L 7.730888305664064 1.975125 L 7.730888305664064 1.756875 Q 7.730888305664064 1.687875 7.709888305664064 1.6560000000000001 Q 7.688888305664064 1.624125 7.645388305664064 1.624125 Q 7.6018883056640645 1.624125 7.566638305664064 1.654875 Q 7.5313883056640645 1.685625 7.517138305664064 1.735875 L 7.517138305664064 1.975125 L 7.466138305664065 1.975125 L 7.466138305664065 1.584375 L 7.512638305664065 1.584375 L 7.512638305664065 1.672875 Q 7.537388305664065 1.627125 7.576013305664064 1.6023749999999999 Q 7.614638305664064 1.577625 7.661888305664064 1.577625 Q 7.710638305664064 1.577625 7.740638305664064 1.605375 Q 7.770638305664065 1.633125 7.777388305664064 1.678125 Q 7.804388305664064 1.628625 7.842263305664065 1.603125 Q 7.880138305664064 1.577625 7.928138305664064 1.577625 Q 7.961138305664065 1.577625 7.984013305664064 1.589625 Q 8.006888305664065 1.601625 8.020763305664065 1.62375 Q 8.034638305664064 1.645875 8.041013305664064 1.677 Q 8.047388305664064 1.708125 8.047388305664064 1.746375 L 8.047388305664064 1.975125 M 8.13139306640625 1.862625 Q 8.13139306640625 1.825875 8.152393066406251 1.79925 Q 8.173393066406252 1.7726250000000001 8.210518066406252 1.758 Q 8.247643066406251 1.743375 8.296393066406251 1.743375 Q 8.32489306640625 1.743375 8.355643066406252 1.747875 Q 8.386393066406251 1.752375 8.410393066406252 1.7613750000000001 L 8.410393066406252 1.728375 Q 8.410393066406252 1.6788750000000001 8.381143066406251 1.649625 Q 8.351893066406252 1.6203750000000001 8.300143066406251 1.6203750000000001 Q 8.268643066406252 1.6203750000000001 8.23826806640625 1.6320000000000001 Q 8.207893066406251 1.6436250000000001 8.174893066406252 1.666125 L 8.155393066406251 1.630125 Q 8.193643066406251 1.603875 8.23039306640625 1.5907499999999999 Q 8.267143066406252 1.577625 8.305393066406252 1.577625 Q 8.37739306640625 1.577625 8.41939306640625 1.618875 Q 8.46139306640625 1.660125 8.46139306640625 1.732875 L 8.46139306640625 1.9136250000000001 Q 8.46139306640625 1.924125 8.46589306640625 1.929 Q 8.47039306640625 1.933875 8.480143066406251 1.934625 L 8.480143066406251 1.975125 Q 8.47189306640625 1.975875 8.46589306640625 1.976625 Q 8.45989306640625 1.977375 8.456893066406252 1.976625 Q 8.438143066406251 1.975875 8.428393066406251 1.964625 Q 8.41864306640625 1.953375 8.41789306640625 1.940625 L 8.41714306640625 1.912125 Q 8.390893066406251 1.945875 8.348893066406252 1.96425 Q 8.306893066406252 1.982625 8.263393066406252 1.982625 Q 8.22589306640625 1.982625 8.195518066406251 1.9665 Q 8.165143066406252 1.950375 8.148268066406251 1.923 Q 8.13139306640625 1.8956250000000001 8.13139306640625 1.862625 M 8.393143066406251 1.892625 Q 8.401393066406252 1.882125 8.405893066406252 1.872375 Q 8.410393066406252 1.862625 8.410393066406252 1.8551250000000001 L 8.410393066406252 1.798125 Q 8.384893066406251 1.788375 8.357518066406252 1.783125 Q 8.33014306640625 1.777875 8.302393066406252 1.777875 Q 8.247643066406251 1.777875 8.213893066406252 1.799625 Q 8.18014306640625 1.821375 8.18014306640625 1.858875 Q 8.18014306640625 1.880625 8.19139306640625 1.89975 Q 8.202643066406251 1.918875 8.22439306640625 1.93125 Q 8.246143066406251 1.943625 8.27539306640625 1.943625 Q 8.312143066406252 1.943625 8.344018066406251 1.929375 Q 8.37589306640625 1.915125 8.393143066406251 1.892625 M 8.763609008789064 1.956375 Q 8.757609008789064 1.958625 8.744859008789064 1.964625 Q 8.732109008789063 1.970625 8.714109008789064 1.975125 Q 8.696109008789064 1.979625 8.675109008789065 1.979625 Q 8.653359008789064 1.979625 8.634234008789065 1.971375 Q 8.615109008789064 1.963125 8.603859008789064 1.94625 Q 8.592609008789063 1.929375 8.592609008789063 1.904625 L 8.592609008789063 1.624875 L 8.538609008789065 1.624875 L 8.538609008789065 1.584375 L 8.592609008789063 1.584375 L 8.592609008789063 1.452375 L 8.643609008789063 1.452375 L 8.643609008789063 1.584375 L 8.733609008789063 1.584375 L 8.733609008789063 1.624875 L 8.643609008789063 1.624875 L 8.643609008789063 1.890375 Q 8.645109008789063 1.911375 8.658984008789064 1.921875 Q 8.672859008789064 1.932375 8.690859008789063 1.932375 Q 8.711859008789064 1.932375 8.729109008789065 1.9252500000000001 Q 8.746359008789064 1.918125 8.750109008789064 1.915125 L 8.763609008789064 1.956375 M 8.834875488281252 1.975125 L 8.834875488281252 1.584375 L 8.885875488281252 1.584375 L 8.885875488281252 1.975125 L 8.834875488281252 1.975125 M 8.834875488281252 1.502625 L 8.834875488281252 1.427625 L 8.885875488281252 1.427625 L 8.885875488281252 1.502625 L 8.834875488281252 1.502625 M 9.156638671875003 1.982625 Q 9.116888671875001 1.982625 9.084263671875002 1.9661250000000001 Q 9.051638671875002 1.949625 9.028388671875001 1.921125 Q 9.005138671875002 1.892625 8.992388671875002 1.85625 Q 8.979638671875001 1.8198750000000001 8.979638671875001 1.780125 Q 8.979638671875001 1.738875 8.993888671875002 1.7025000000000001 Q 9.008138671875003 1.666125 9.033263671875002 1.638 Q 9.058388671875003 1.609875 9.092513671875002 1.59375 Q 9.126638671875002 1.577625 9.165638671875001 1.577625 Q 9.211388671875001 1.577625 9.250013671875003 1.60125 Q 9.288638671875002 1.624875 9.310388671875002 1.6608749999999999 L 9.310388671875002 1.584375 L 9.356138671875001 1.584375 L 9.356138671875001 2.134875 L 9.305138671875001 2.134875 L 9.305138671875001 1.894125 Q 9.247388671875003 1.982625 9.156638671875003 1.982625 M 9.172388671875002 1.937625 Q 9.203138671875003 1.937625 9.228263671875002 1.9252500000000001 Q 9.253388671875003 1.912875 9.272513671875002 1.891875 Q 9.291638671875003 1.870875 9.305138671875001 1.845375 L 9.305138671875001 1.724625 Q 9.302888671875001 1.704375 9.290138671875003 1.686 Q 9.277388671875002 1.6676250000000001 9.258638671875001 1.653 Q 9.239888671875002 1.638375 9.218138671875002 1.6305 Q 9.196388671875003 1.622625 9.175388671875002 1.622625 Q 9.143138671875002 1.622625 9.117263671875001 1.636125 Q 9.091388671875002 1.649625 9.071888671875001 1.672125 Q 9.052388671875002 1.694625 9.041888671875002 1.723125 Q 9.031388671875002 1.751625 9.031388671875002 1.780875 Q 9.031388671875002 1.822875 9.049763671875002 1.858875 Q 9.068138671875001 1.894875 9.099638671875002 1.91625 Q 9.131138671875002 1.937625 9.172388671875002 1.937625 M 9.47239196777344 1.813875 L 9.47239196777344 1.584375 L 9.52339196777344 1.584375 L 9.52339196777344 1.804875 Q 9.52339196777344 1.871625 9.54626696777344 1.904625 Q 9.56914196777344 1.937625 9.61414196777344 1.937625 Q 9.64414196777344 1.937625 9.67226696777344 1.9245 Q 9.70039196777344 1.911375 9.72214196777344 1.887 Q 9.74389196777344 1.862625 9.75514196777344 1.830375 L 9.75514196777344 1.584375 L 9.80614196777344 1.584375 L 9.80614196777344 1.9136250000000001 Q 9.80614196777344 1.924125 9.81064196777344 1.929 Q 9.81514196777344 1.933875 9.82414196777344 1.934625 L 9.82414196777344 1.975125 Q 9.81514196777344 1.975875 9.80989196777344 1.97625 Q 9.80464196777344 1.976625 9.80014196777344 1.976625 Q 9.78514196777344 1.975125 9.774266967773439 1.964625 Q 9.76339196777344 1.9541250000000001 9.76264196777344 1.939125 L 9.76114196777344 1.886625 Q 9.73564196777344 1.931625 9.69176696777344 1.957125 Q 9.64789196777344 1.982625 9.59689196777344 1.982625 Q 9.53539196777344 1.982625 9.50389196777344 1.939875 Q 9.47239196777344 1.897125 9.47239196777344 1.813875 M 10.09788757324219 1.982625 Q 10.05588757324219 1.982625 10.01988757324219 1.9665 Q 9.98388757324219 1.950375 9.95763757324219 1.92225 Q 9.93138757324219 1.894125 9.91676257324219 1.857375 Q 9.90213757324219 1.820625 9.90213757324219 1.778625 Q 9.90213757324219 1.723875 9.92726257324219 1.678125 Q 9.95238757324219 1.6323750000000001 9.99663757324219 1.605 Q 10.04088757324219 1.577625 10.09713757324219 1.577625 Q 10.15488757324219 1.577625 10.19801257324219 1.605375 Q 10.24113757324219 1.633125 10.26588757324219 1.6785 Q 10.29063757324219 1.723875 10.29063757324219 1.777875 Q 10.29063757324219 1.783875 10.29063757324219 1.7895 Q 10.29063757324219 1.795125 10.28988757324219 1.798125 L 9.95538757324219 1.798125 Q 9.95913757324219 1.840125 9.97901257324219 1.87275 Q 9.99888757324219 1.905375 10.03076257324219 1.9245 Q 10.06263757324219 1.943625 10.10013757324219 1.943625 Q 10.13838757324219 1.943625 10.17251257324219 1.924125 Q 10.20663757324219 1.904625 10.22013757324219 1.873125 L 10.26438757324219 1.885125 Q 10.25238757324219 1.912875 10.22763757324219 1.935375 Q 10.20288757324219 1.957875 10.16951257324219 1.97025 Q 10.13613757324219 1.982625 10.09788757324219 1.982625 M 9.95388757324219 1.7613750000000001 L 10.24263757324219 1.7613750000000001 Q 10.23963757324219 1.718625 10.21976257324219 1.686375 Q 10.19988757324219 1.654125 10.16801257324219 1.63575 Q 10.13613757324219 1.617375 10.09788757324219 1.617375 Q 10.05963757324219 1.617375 10.02813757324219 1.63575 Q 9.99663757324219 1.654125 9.97676257324219 1.68675 Q 9.95688757324219 1.7193749999999999 9.95388757324219 1.7613750000000001" fill="#302c2d" fill-rule="nonzero"></path></g><g clip-path="url(&quot;#SvgjsClipPath1002&quot;)"><g clip-path="url(&quot;#c0e62838e-f375-4f94-9ec8-0724518d95e7fef9a664-76fd-40fc-8590-7cf718e2f9b3&quot;)"><path d=" M -0.5163066059365011 1.8075256221185168 L -1.8486308202648827 1.8075256221185168 L -1.8477270679404192 -0.04558978718328015 L -0.8909354524350024 -0.04558978718328015 L -0.5042966256247023 0.34609542543876354 C -0.38233707783902826 0.4633324755289753 -0.4041211656599084 0.5639624236569384 -0.4041211656599084 0.5639624236569384 L -0.40486297392623083 1.6781845596827467 C -0.40486297392623083 1.6781845596827467 -0.4046801338605883 1.6340521918384319 -0.4046801338605883 1.6800338563466775 C -0.4046801338605883 1.7469167523588416 -0.3902096486654232 1.8075256221185168 -0.5163066059365011 1.8075256221185168" fill="#231f20" transform="matrix(1,0,0,1,0,0)" fill-rule="nonzero" opacity="0.7"></path></g><g clip-path="url(&quot;#c0e62838e-f375-4f94-9ec8-0724518d95e7fef9a664-76fd-40fc-8590-7cf718e2f9b3&quot;)"><path d=" M -0.5163066059365011 1.8075256221185168 L -1.8486308202648827 1.8075256221185168 L -1.8477270679404192 -0.04558978718328015 L -0.8909354524350024 -0.04558978718328015 L -0.5042966256247023 0.34609542543876354 C -0.38233707783902826 0.4633324755289753 -0.4041211656599084 0.5639624236569384 -0.4041211656599084 0.5639624236569384 L -0.40486297392623083 1.6781845596827467 C -0.40486297392623083 1.6781845596827467 -0.4046801338605883 1.6340521918384319 -0.4046801338605883 1.6800338563466775 C -0.4046801338605883 1.7469167523588416 -0.3902096486654232 1.8075256221185168 -0.5163066059365011 1.8075256221185168 Z" fill="none" transform="matrix(1,0,0,1,0,0)" fill-rule="nonzero" opacity="0.7" stroke-dasharray="none" stroke-miterlimit="4" stroke-linejoin="miter" stroke-linecap="butt" stroke-width="0.0052240018755107314" stroke="#231f20"></path></g><g clip-path="url(&quot;#e0e62838e-f375-4f94-9ec8-0724518d95e7fef9a664-76fd-40fc-8590-7cf718e2f9b3&quot;)"><path d=" M -2.5003407262404727 1.8814661446644956 L -2.5692662069859615 1.9912798880896072 C -2.5692662069859615 1.9912798880896072 -2.5851523966893897 2.0229948034758323 -2.516289603966407 2.0205551945999694 C -2.4474268112434245 2.0181155857241055 -0.8106007515933986 2.020685794646857 -0.8106007515933986 2.020685794646857 C -0.8106007515933986 2.020685794646857 -0.7867636310354436 2.0229948034758323 -0.7973579068389784 1.9864006703378796 C -0.8079521826425147 1.9497908651943003 -0.8317840791985947 1.8814661446644956 -0.8317840791985947 1.8814661446644956 Z" fill="#231f20" transform="matrix(1,0,0,1,0,0)" fill-rule="nonzero" opacity="0.7"></path></g><g clip-path="url(&quot;#e0e62838e-f375-4f94-9ec8-0724518d95e7fef9a664-76fd-40fc-8590-7cf718e2f9b3&quot;)"><path d=" M -2.5003407262404727 1.8814661446644956 L -2.5692662069859615 1.9912798880896072 C -2.5692662069859615 1.9912798880896072 -2.5851523966893897 2.0229948034758323 -2.516289603966407 2.0205551945999694 C -2.4474268112434245 2.0181155857241055 -0.8106007515933986 2.020685794646857 -0.8106007515933986 2.020685794646857 C -0.8106007515933986 2.020685794646857 -0.7867636310354436 2.0229948034758323 -0.7973579068389784 1.9864006703378796 C -0.8079521826425147 1.9497908651943003 -0.8317840791985947 1.8814661446644956 -0.8317840791985947 1.8814661446644956 Z" fill="none" transform="matrix(1,0,0,1,0,0)" fill-rule="nonzero" opacity="0.7" stroke-dasharray="none" stroke-miterlimit="4" stroke-linejoin="miter" stroke-linecap="butt" stroke-width="0.0052240018755107314" stroke="#231f20"></path></g><g clip-path="url(&quot;#d0e62838e-f375-4f94-9ec8-0724518d95e7fef9a664-76fd-40fc-8590-7cf718e2f9b3&quot;)"><path d=" M -2.470924371679472 1.926382112790137 L -2.4931054836428905 1.926382112790137 L -2.4931054836428905 1.9145549725439808 L -2.470924371679472 1.9145549725439808 Z M -2.4586688632795237 1.909853370856021 L -2.480395487079773 1.909853370856021 L -2.480395487079773 1.9010300316882836 L -2.4586688632795237 1.9010300316882836 Z M -2.3553067621706685 1.926382112790137 L -2.3774878741340872 1.926382112790137 L -2.3774878741340872 1.9145549725439808 L -2.3553067621706685 1.9145549725439808 Z M -2.3430512537707204 1.909853370856021 L -2.3647778775709694 1.909853370856021 L -2.3647778775709694 1.9010300316882836 L -2.3430512537707204 1.9010300316882836 Z M -2.2388062963449036 1.926382112790137 L -2.2609874083083223 1.926382112790137 L -2.2609874083083223 1.9145549725439808 L -2.2388062963449036 1.9145549725439808 Z M -2.2265507879449555 1.909853370856021 L -2.248277411745205 1.909853370856021 L -2.248277411745205 1.9010300316882836 L -2.2265507879449555 1.9010300316882836 Z M -2.1188057492625467 1.926382112790137 L -2.140986861225965 1.926382112790137 L -2.140986861225965 1.9145549725439808 L -2.1188057492625467 1.9145549725439808 Z M -2.1065502408625987 1.909853370856021 L -2.1282768646628476 1.909853370856021 L -2.1282768646628476 1.9010300316882836 L -2.1065502408625987 1.9010300316882836 Z M -2.0031881397537434 1.926382112790137 L -2.0253692517171618 1.926382112790137 L -2.0253692517171618 1.9145549725439808 L -2.0031881397537434 1.9145549725439808 Z M -1.990932631353795 1.909853370856021 L -2.012659255154044 1.909853370856021 L -2.012659255154044 1.9010300316882836 L -1.990932631353795 1.9010300316882836 Z M -1.885825713618519 1.926382112790137 L -1.9080068255819378 1.926382112790137 L -1.9080068255819378 1.9145549725439808 L -1.885825713618519 1.9145549725439808 Z M -1.873570205218571 1.909853370856021 L -1.8952968290188201 1.909853370856021 L -1.8952968290188201 1.9010300316882836 L -1.873570205218571 1.9010300316882836 Z M -1.7667080228531236 1.926382112790137 L -1.788889134816542 1.926382112790137 L -1.788889134816542 1.9145549725439808 L -1.7667080228531236 1.9145549725439808 Z M -1.7544525144531753 1.909853370856021 L -1.7761791382534242 1.909853370856021 L -1.7761791382534242 1.9010300316882836 L -1.7544525144531753 1.9010300316882836 Z M -1.6651011863744398 1.926382112790137 L -1.6872822983378584 1.926382112790137 L -1.6872822983378584 1.9145549725439808 L -1.6651011863744398 1.9145549725439808 Z M -1.6344519673708182 1.909853370856021 L -1.6561785911710674 1.909853370856021 L -1.6561785911710674 1.9010300316882836 L -1.6344519673708182 1.9010300316882836 Z M -1.544223006976997 1.926382112790137 L -1.5664041189404156 1.926382112790137 L -1.5664041189404156 1.9145549725439808 L -1.544223006976997 1.9145549725439808 Z M -1.513579011975251 1.909853370856021 L -1.5353056357755 1.909853370856021 L -1.5353056357755 1.9010300316882836 L -1.513579011975251 1.9010300316882836 Z M -1.4321054787247856 1.926382112790137 L -1.454286590688204 1.926382112790137 L -1.454286590688204 1.9145549725439808 L -1.4321054787247856 1.9145549725439808 Z M -1.4014562597211644 1.909853370856021 L -1.4231828835214133 1.909853370856021 L -1.4231828835214133 1.9010300316882836 L -1.4014562597211644 1.9010300316882836 Z M -1.3147326045858108 1.926382112790137 L -1.336913716549229 1.926382112790137 L -1.336913716549229 1.9145549725439808 L -1.3147326045858108 1.9145549725439808 Z M -1.2840833855821892 1.909853370856021 L -1.3058100093824383 1.909853370856021 L -1.3058100093824383 1.9010300316882836 L -1.2840833855821892 1.9010300316882836 Z M -1.2591335526247498 1.9331471952189232 L -1.2808601764249987 1.9331471952189232 L -1.2808601764249987 1.9243238560511857 L -1.2591335526247498 1.9243238560511857 Z M -1.227601477304167 1.952679738231458 L -1.2493281011044162 1.952679738231458 L -1.2493281011044162 1.9438563990637205 L -1.227601477304167 1.9438563990637205 Z M -1.140444230013146 1.9331471952189232 L -1.1621708538133952 1.9331471952189232 L -1.1621708538133952 1.9243238560511857 L -1.140444230013146 1.9243238560511857 Z M -1.1089121546925635 1.952679738231458 L -1.1306387784928125 1.952679738231458 L -1.1306387784928125 1.9438563990637205 L -1.1089121546925635 1.9438563990637205 Z M -1.0300819663911063 1.9399122776477098 L -1.0518085901913552 1.9399122776477098 L -1.0518085901913552 1.9310889384799723 L -1.0300819663911063 1.9310889384799723 Z M -1.3765064267637248 1.9331471952189232 L -1.398233050563974 1.9331471952189232 L -1.398233050563974 1.9243238560511857 L -1.3765064267637248 1.9243238560511857 Z M -1.3449743514431423 1.952679738231458 L -1.3667009752433914 1.952679738231458 L -1.3667009752433914 1.9438563990637205 L -1.3449743514431423 1.9438563990637205 Z M -1.4886239550159361 1.9331471952189232 L -1.5103505788161853 1.9331471952189232 L -1.5103505788161853 1.9243238560511857 L -1.4886239550159361 1.9243238560511857 Z M -1.4570918796953536 1.952679738231458 L -1.4788185034956025 1.952679738231458 L -1.4788185034956025 1.9438563990637205 L -1.4570918796953536 1.9438563990637205 Z M -1.6094969104115036 1.9331471952189232 L -1.6312235342117527 1.9331471952189232 L -1.6312235342117527 1.9243238560511857 L -1.6094969104115036 1.9243238560511857 Z M -1.5779648350909208 1.952679738231458 L -1.5996914588911697 1.952679738231458 L -1.5996914588911697 1.9438563990637205 L -1.5779648350909208 1.9438563990637205 Z M -1.7294974574938606 1.9331471952189232 L -1.7512240812941096 1.9331471952189232 L -1.7512240812941096 1.9243238560511857 L -1.7294974574938606 1.9243238560511857 Z M -1.6979653821732779 1.952679738231458 L -1.7196920059735268 1.952679738231458 L -1.7196920059735268 1.9438563990637205 L -1.6979653821732779 1.9438563990637205 Z M -1.842487394059282 1.9331471952189232 L -1.8642140178595312 1.9331471952189232 L -1.8642140178595312 1.9243238560511857 L -1.842487394059282 1.9243238560511857 Z M -1.8109553187386993 1.952679738231458 L -1.8326819425389482 1.952679738231458 L -1.8326819425389482 1.9438563990637205 L -1.8109553187386993 1.9438563990637205 Z M -1.9554773306247037 1.9331471952189232 L -1.9772039544249527 1.9331471952189232 L -1.9772039544249527 1.9243238560511857 L -1.9554773306247037 1.9243238560511857 Z M -1.923945255304121 1.952679738231458 L -1.9456718791043701 1.952679738231458 L -1.9456718791043701 1.9438563990637205 L -1.923945255304121 1.9438563990637205 Z M -2.066712002559954 1.9331471952189232 L -2.088438626360203 1.9331471952189232 L -2.088438626360203 1.9243238560511857 L -2.066712002559954 1.9243238560511857 Z M -2.035179927239371 1.952679738231458 L -2.05690655103962 1.952679738231458 L -2.05690655103962 1.9438563990637205 L -2.035179927239371 1.9438563990637205 Z M -2.1779466744952036 1.9331471952189232 L -2.199673298295453 1.9331471952189232 L -2.199673298295453 1.9243238560511857 L -2.1779466744952036 1.9243238560511857 Z M -2.146414599174621 1.952679738231458 L -2.16814122297487 1.952679738231458 L -2.16814122297487 1.9438563990637205 L -2.146414599174621 1.9438563990637205 Z M -2.299692038203981 1.9331471952189232 L -2.3214186620042305 1.9331471952189232 L -2.3214186620042305 1.9243238560511857 L -2.299692038203981 1.9243238560511857 Z M -2.2681599628833986 1.952679738231458 L -2.2898865866836475 1.952679738231458 L -2.2898865866836475 1.9438563990637205 L -2.2681599628833986 1.9438563990637205 Z M -2.4214374019127587 1.9331471952189232 L -2.443164025713008 1.9331471952189232 L -2.443164025713008 1.9243238560511857 L -2.4214374019127587 1.9243238560511857 Z M -2.389905326592176 1.952679738231458 L -2.411631950392425 1.952679738231458 L -2.411631950392425 1.9438563990637205 L -2.389905326592176 1.9438563990637205 Z M -2.3342958266273643 1.9695898323024865 L -2.3560224504276137 1.9695898323024865 L -2.3560224504276137 1.960766493134749 L -2.3342958266273643 1.960766493134749 Z M -2.2206476658256284 1.9695898323024865 L -2.242374289625878 1.9695898323024865 L -2.242374289625878 1.960766493134749 L -2.2206476658256284 1.960766493134749 Z M -2.1069995050238925 1.9695898323024865 L -2.1287261288241415 1.9695898323024865 L -2.1287261288241415 1.960766493134749 L -2.1069995050238925 1.960766493134749 Z M -2.1063203847800764 1.987628310778625 L -2.1280470085803254 1.987628310778625 L -2.1280470085803254 1.9788049716108875 L -2.1063203847800764 1.9788049716108875 Z M -2.2642106174655123 1.987628310778625 L -2.2859372412657617 1.987628310778625 L -2.2859372412657617 1.9788049716108875 L -2.2642106174655123 1.9788049716108875 Z M -2.4089572614321635 1.987628310778625 L -2.430683885232413 1.987628310778625 L -2.430683885232413 1.9788049716108875 L -2.4089572614321635 1.9788049716108875 Z M -1.9933513442221567 1.9695898323024865 L -2.0150779680224056 1.9695898323024865 L -2.0150779680224056 1.960766493134749 L -1.9933513442221567 1.960766493134749 Z M -1.8797084074222958 1.9695898323024865 L -1.9014350312225452 1.9695898323024865 L -1.9014350312225452 1.960766493134749 L -1.8797084074222958 1.960766493134749 Z M -1.754786850573208 1.9695898323024865 L -1.776513474373457 1.9695898323024865 L -1.776513474373457 1.960766493134749 L -1.754786850573208 1.960766493134749 Z M -1.6411439137733475 1.9695898323024865 L -1.6628705375735966 1.9695898323024865 L -1.6628705375735966 1.960766493134749 L -1.6411439137733475 1.960766493134749 Z M -1.513579011975251 1.9695898323024865 L -1.5353056357755 1.9695898323024865 L -1.5353056357755 1.960766493134749 L -1.513579011975251 1.960766493134749 Z M -1.513579011975251 1.9859357341709596 L -1.5353056357755 1.9859357341709596 L -1.5353056357755 1.9771123950032221 L -1.513579011975251 1.9771123950032221 Z M -1.397303178230133 1.9695898323024865 L -1.4190298020303822 1.9695898323024865 L -1.4190298020303822 1.960766493134749 L -1.397303178230133 1.960766493134749 Z M -1.3723481212708184 1.9831147731581837 L -1.3940747450710675 1.9831147731581837 L -1.3940747450710675 1.9742914339904463 L -1.3723481212708184 1.9742914339904463 Z M -1.2790683437816988 1.9662099030890312 L -1.300794967581948 1.9662099030890312 L -1.300794967581948 1.9573865639212933 L -1.2790683437816988 1.9573865639212933 Z M -1.2466534121441546 1.9859357341709596 L -1.2683800359444037 1.9859357341709596 L -1.2683800359444037 1.9771123950032221 L -1.2466534121441546 1.9771123950032221 Z M -1.1601648370931992 1.9662099030890312 L -1.181891460893448 1.9662099030890312 L -1.181891460893448 1.9573865639212933 L -1.1601648370931992 1.9573865639212933 Z M -1.127749905455655 1.9859357341709596 L -1.1494765292559042 1.9859357341709596 L -1.1494765292559042 1.9771123950032221 L -1.127749905455655 1.9771123950032221 Z M -1.0108158474742226 1.9898798555869703 L -1.032542471274472 1.9898798555869703 L -1.032542471274472 1.9810565164192329 L -1.0108158474742226 1.9810565164192329 Z M -1.1938596491902431 1.926382112790137 L -1.2160407611536614 1.926382112790137 L -1.2160407611536614 1.9145549725439808 L -1.1938596491902431 1.9145549725439808 Z M -1.163210430186622 1.909853370856021 L -1.1849370539868709 1.909853370856021 L -1.1849370539868709 1.9010300316882836 L -1.163210430186622 1.9010300316882836 Z M -1.0835078335719546 1.926382112790137 L -1.1056889455353731 1.926382112790137 L -1.1056889455353731 1.9145549725439808 L -1.0835078335719546 1.9145549725439808 Z M -1.0447614116612916 1.909853370856021 L -1.0664880354615405 1.909853370856021 L -1.0664880354615405 1.9010300316882836 L -1.0447614116612916 1.9010300316882836 Z" fill="#abaaaa" transform="matrix(1,0,0,1,0,0)" fill-rule="nonzero" stroke-dasharray="none" stroke-miterlimit="4" stroke-linejoin="miter" stroke-linecap="butt" stroke-width="0.020896007502042926" stroke="#abaaaa"></path></g><g clip-path="url(&quot;#d0e62838e-f375-4f94-9ec8-0724518d95e7fef9a664-76fd-40fc-8590-7cf718e2f9b3&quot;)"><path d=" M -2.5166082680808133 1.9624799657499166 L -2.457054646699991 1.9624799657499166 M -2.5166082680808133 1.9624799657499166 L -2.457054646699991 1.9624799657499166" fill="none" transform="matrix(1,0,0,1,0,0)" fill-rule="nonzero" stroke-dasharray="none" stroke-miterlimit="4" stroke-linejoin="miter" stroke-linecap="butt" stroke-width="0.020896007502042926" stroke="#abaaaa"></path></g><g clip-path="url(&quot;#d0e62838e-f375-4f94-9ec8-0724518d95e7fef9a664-76fd-40fc-8590-7cf718e2f9b3&quot;)"><path d=" M -0.9548824593931293 1.9295687539341988 L -1.0144360807739516 1.9295687539341988" fill="none" transform="matrix(1,0,0,1,0,0)" fill-rule="nonzero" stroke-dasharray="none" stroke-miterlimit="4" stroke-linejoin="miter" stroke-linecap="butt" stroke-width="0.020896007502042926" stroke="#abaaaa"></path></g><g clip-path="url(&quot;#d0e62838e-f375-4f94-9ec8-0724518d95e7fef9a664-76fd-40fc-8590-7cf718e2f9b3&quot;)"><path d=" M -0.9443769916214773 1.9447601513881838 L -1.0039306130022994 1.9447601513881838" fill="none" transform="matrix(1,0,0,1,0,0)" fill-rule="nonzero" stroke-dasharray="none" stroke-miterlimit="4" stroke-linejoin="miter" stroke-linecap="butt" stroke-width="0.020896007502042926" stroke="#abaaaa"></path></g><g clip-path="url(&quot;#d0e62838e-f375-4f94-9ec8-0724518d95e7fef9a664-76fd-40fc-8590-7cf718e2f9b3&quot;)"><path d=" M -0.9312386269045676 1.9624799657499166 L -0.9907922482853899 1.9624799657499166" fill="none" transform="matrix(1,0,0,1,0,0)" fill-rule="nonzero" stroke-dasharray="none" stroke-miterlimit="4" stroke-linejoin="miter" stroke-linecap="butt" stroke-width="0.020896007502042926" stroke="#abaaaa"></path></g><g clip-path="url(&quot;#d0e62838e-f375-4f94-9ec8-0724518d95e7fef9a664-76fd-40fc-8590-7cf718e2f9b3&quot;)"><path d=" M -1.0126964881494067 1.9624799657499166 L -1.072250109530229 1.9624799657499166" fill="none" transform="matrix(1,0,0,1,0,0)" fill-rule="nonzero" stroke-dasharray="none" stroke-miterlimit="4" stroke-linejoin="miter" stroke-linecap="butt" stroke-width="0.020896007502042926" stroke="#abaaaa"></path></g><g clip-path="url(&quot;#d0e62838e-f375-4f94-9ec8-0724518d95e7fef9a664-76fd-40fc-8590-7cf718e2f9b3&quot;)"><path d=" M -0.9251056487027183 1.982012508762451 L -1.0223190996040976 1.982012508762451" fill="none" transform="matrix(1,0,0,1,0,0)" fill-rule="nonzero" stroke-dasharray="none" stroke-miterlimit="4" stroke-linejoin="miter" stroke-linecap="butt" stroke-width="0.020896007502042926" stroke="#abaaaa"></path></g><g clip-path="url(&quot;#b0e62838e-f375-4f94-9ec8-0724518d95e7fef9a664-76fd-40fc-8590-7cf718e2f9b3&quot;)"><path d=" M -1.9735001370952157 1.5436456153808433 C -1.9735001370952157 1.5436456153808433 -1.9712590402906216 1.7479302087226904 -1.9959058811392811 1.7658903271706965 C -2.020552721987941 1.783850445618702 -2.092252147729326 1.7816041248122327 -2.098975438143108 1.7928305048427053 C -2.10569872855689 1.8040516608713024 -1.9421300058327737 1.8070450139459702 -1.7143321800492528 1.8070450139459702 L -1.7143269560473773 1.8070450139459702 C -1.4865291302638564 1.8070450139459702 -1.3229604075397399 1.8040516608713024 -1.3296836979535225 1.7928305048427053 C -1.3364069883673046 1.7816041248122327 -1.4081064141086894 1.783850445618702 -1.4327532549573492 1.7658903271706965 C -1.4574000958060085 1.7479302087226904 -1.4551589990014144 1.5436456153808433 -1.4551589990014144 1.5436456153808433 Z" fill="#a4a3a5" transform="matrix(1,0,0,1,0,0)" fill-rule="nonzero"></path></g><g clip-path="url(&quot;#f0e62838e-f375-4f94-9ec8-0724518d95e7fef9a664-76fd-40fc-8590-7cf718e2f9b3&quot;)"><path d=" M -1.6772678867425044 1.5436456153808433 L -1.4551589990014144 1.5436456153808433 C -1.4551589990014144 1.5436456153808433 -1.457394871804133 1.7479302087226904 -1.4327480309554737 1.7658903271706965 C -1.4081064141086894 1.783850445618702 -1.3364017643654291 1.7816041248122327 -1.3296836979535225 1.7928305048427053 C -1.3229604075397399 1.8040516608713024 -1.4865239062619808 1.8070450139459702 -1.7143269560473773 1.8070450139459702 L -1.59115021582471 1.8070450139459702 C -1.59115021582471 1.8070450139459702 -1.6735431734052653 1.5835778857172476 -1.6772678867425044 1.5436456153808433" fill="#a4a3a5" transform="matrix(1,0,0,1,0,0)" fill-rule="nonzero"></path></g><g clip-path="url(&quot;#b0e62838e-f375-4f94-9ec8-0724518d95e7fef9a664-76fd-40fc-8590-7cf718e2f9b3&quot;)"><path d=" M -2.8652477052486485 1.4529726148276039 C -2.8652477052486485 1.51338297251601 -2.8170928559601904 1.5623579900989228 -2.7576959546356337 1.5623579900989228 L -0.696336158570352 1.5623579900989228 C -0.6369340332439197 1.5623579900989228 -0.5887844079573372 1.51338297251601 -0.5887844079573372 1.4529726148276039 L -0.5887844079573372 0.061397771227179834 C -0.5887844079573372 0.0009769655350227169 -0.6369340332439197 -0.04798760404413943 -0.696336158570352 -0.04798760404413943 L -2.7576959546356337 -0.04798760404413943 C -2.8170928559601904 -0.04798760404413943 -2.8652477052486485 0.0009769655350224948 -2.8652477052486485 0.061397771227179834 Z" fill="#ffffff" transform="matrix(1,0,0,1,0,0)" fill-rule="nonzero"></path></g><g clip-path="url(&quot;#b0e62838e-f375-4f94-9ec8-0724518d95e7fef9a664-76fd-40fc-8590-7cf718e2f9b3&quot;)"><path d=" M -2.770405951198751 1.272175133918053 L -0.6836366100109856 1.272175133918053 L -0.6836366100109856 0.07099426267249273 L -2.770405951198751 0.07099426267249273 Z" fill="#b0e08e" transform="matrix(1,0,0,1,0,0)" fill-rule="nonzero"></path></g><g clip-path="url(&quot;#b0e62838e-f375-4f94-9ec8-0724518d95e7fef9a664-76fd-40fc-8590-7cf718e2f9b3&quot;)"><path d=" M -1.7450754310866334 0.010380168910941838 C -1.7450754414902265 0.020361205233506763 -1.7369918585203676 0.028456476437946507 -1.7270108326012243 0.028470887405835338 C -1.7170347338727354 0.028450716587645294 -1.7089590041236602 0.020356287609049714 -1.7089619061212278 0.010380168910941838 C -1.70895324382686 0.0004016700751782454 -1.7170323404190075 -0.007696133542363613 -1.7270108326011173 -0.0077105495839518215 C -1.7369942503097355 -0.007701897608287128 -1.745081203932163 0.0003967491223279898 -1.7450754310866334 0.010380168910941845" fill="#cceffc" transform="matrix(1,0,0,1,0,0)" fill-rule="nonzero"></path></g><g clip-path="url(&quot;#b0e62838e-f375-4f94-9ec8-0724518d95e7fef9a664-76fd-40fc-8590-7cf718e2f9b3&quot;)"><path d=" M -0.5990495716427158 1.4997274316134246 C -0.6162835538300255 1.5367551569070446 -0.6533530711386497 1.5623632141007984 -0.6963048145590989 1.5623632141007984 C -0.6533948631536539 1.5623632141007984 -0.6162940018337766 1.53676038090892 -0.5990495716427158 1.4997274316134246 M -0.599007779627712 1.4996333995796656 L -0.599007779627712 1.4996490715852917 L -0.599007779627712 1.4996333995796656 M -1.3625217737429824 -0.047987604044139646 L -0.6963048145590989 -0.047987604044139646 C -0.6369131372364176 -0.047987604044139646 -0.5887582879479596 0.0009821895368980413 -0.5887582879479596 0.061397771227179626 L -0.5887582879479596 1.3445171118901253 L -0.5887896319592127 0.061397771227179404 C -0.5887896319592127 0.0009821895368978192 -0.6369392572457953 -0.04798760404413987 -0.696336158570352 -0.04798760404413987 Z" fill="#ffffff" transform="matrix(1,0,0,1,0,0)" fill-rule="nonzero"></path></g><g clip-path="url(&quot;#b0e62838e-f375-4f94-9ec8-0724518d95e7fef9a664-76fd-40fc-8590-7cf718e2f9b3&quot;)"><path d=" M -2.770405951198751 0.15244167591358068 L -0.6836366100109856 0.15244167591358068 L -0.6836366100109856 0.07099426267249273 L -2.770405951198751 0.07099426267249273 Z" fill="#dbdcde" transform="matrix(1,0,0,1,0,0)" fill-rule="nonzero"></path></g><g clip-path="url(&quot;#b0e62838e-f375-4f94-9ec8-0724518d95e7fef9a664-76fd-40fc-8590-7cf718e2f9b3&quot;)"><path d=" M -2.3827797880339796 0.12309845737883687 C -2.3827797880339796 0.1293881556369518 -2.3780520663366422 0.13448155746557475 -2.372242976251074 0.13448155746557475 L -0.7487015533704722 0.13448155746557475 C -0.7428767912792771 0.13448155746557475 -0.7381595175856912 0.1293881556369518 -0.7381595175856912 0.12309845737883687 C -0.7381595175856912 0.11680875912072194 -0.7428767912792775 0.111715357292099 -0.7487015533704722 0.111715357292099 L -2.372242976251074 0.111715357292099 C -2.3780520663366422 0.111715357292099 -2.3827797880339796 0.11680875912072194 -2.3827797880339796 0.12309845737883687" fill="#ffffff" transform="matrix(1,0,0,1,0,0)" fill-rule="nonzero"></path></g><g clip-path="url(&quot;#b0e62838e-f375-4f94-9ec8-0724518d95e7fef9a664-76fd-40fc-8590-7cf718e2f9b3&quot;)"><path d=" M -2.7367999471335906 0.12309845737883687 C -2.7367999471335906 0.1293881556369518 -2.731706545304968 0.13448155746557475 -2.725437743054355 0.13448155746557475 L -2.445676770615129 0.13448155746557475 C -2.439392296358889 0.13448155746557475 -2.434314566535893 0.1293881556369518 -2.434314566535893 0.12309845737883687 C -2.4343090179053717 0.12008139463754969 -2.435503653876146 0.11718600243734045 -2.4376350821732142 0.11505065427213956 C -2.439766510470282 0.11291530610693867 -2.4426597027716506 0.11171535218990591 -2.445676770615128 0.111715357292099 L -2.725437743054355 0.111715357292099 C -2.731706545304968 0.111715357292099 -2.7367999471335906 0.11680875912072194 -2.7367999471335906 0.12309845737883687" fill="#ffffff" transform="matrix(1,0,0,1,0,0)" fill-rule="nonzero"></path></g><g clip-path="url(&quot;#b0e62838e-f375-4f94-9ec8-0724518d95e7fef9a664-76fd-40fc-8590-7cf718e2f9b3&quot;)"><path d=" M -0.712765644468834 0.08884467708111277 C -0.712765644468834 0.09338433471093158 -0.709082723146599 0.09707770403691768 -0.7045482895186552 0.09707770403691768 C -0.7000013142860189 0.09707770403691768 -0.6963152625628504 0.09339165231374966 -0.6963152625628504 0.08884467708111277 C -0.6963152625628504 0.08429770184847588 -0.7000013142860189 0.08061165012530785 -0.7045482895186552 0.08061165012530785 C -0.7090903392260297 0.08061741689429289 -0.7127685319731016 0.08430262463071059 -0.712765644468834 0.08884467708111277" fill="#c91e25" transform="matrix(1,0,0,1,0,0)" fill-rule="nonzero"></path></g><g clip-path="url(&quot;#b0e62838e-f375-4f94-9ec8-0724518d95e7fef9a664-76fd-40fc-8590-7cf718e2f9b3&quot;)"><path d=" M -0.7389117738557647 0.08884467708111277 C -0.7389117738557647 0.09338433471093158 -0.7352288525335298 0.09707770403691768 -0.730694418905586 0.09707770403691768 C -0.7261474436729496 0.09707770403691768 -0.7224613919497815 0.09339165231374966 -0.7224613919497815 0.08884467708111277 C -0.7224613919497815 0.08429770184847588 -0.7261474436729496 0.08061165012530785 -0.730694418905586 0.08061165012530785 C -0.7352364686129604 0.08061741689429289 -0.7389146613600324 0.08430262463071059 -0.7389117738557647 0.08884467708111277" fill="#fff200" transform="matrix(1,0,0,1,0,0)" fill-rule="nonzero"></path></g><g clip-path="url(&quot;#b0e62838e-f375-4f94-9ec8-0724518d95e7fef9a664-76fd-40fc-8590-7cf718e2f9b3&quot;)"><path d=" M -0.7650526792408203 0.08884467708111277 C -0.7650526792408203 0.09338433471093158 -0.7613697579185854 0.09707770403691768 -0.756835324290642 0.09707770403691768 C -0.7522883490580052 0.09707770403691768 -0.7486022973348372 0.09339165231374966 -0.7486022973348372 0.08884467708111277 C -0.7486022973348372 0.08429770184847588 -0.7522883490580052 0.08061165012530785 -0.756835324290642 0.08061165012530785 C -0.7613773739980165 0.08061741689429289 -0.765055566745088 0.08430262463071059 -0.7650526792408203 0.08884467708111277" fill="#6ec72e" transform="matrix(1,0,0,1,0,0)" fill-rule="nonzero"></path></g><g clip-path="url(&quot;#g0e62838e-f375-4f94-9ec8-0724518d95e7fef9a664-76fd-40fc-8590-7cf718e2f9b3&quot;)"><path d=" M -2.5519120727555147 1.5623632141007984 L -2.7576959546356337 1.5623632141007984 C -2.817098079962066 1.5623632141007984 -2.8652477052486485 1.5133881965178855 -2.8652477052486485 1.452977838829479 L -2.8652477052486485 0.061402995229055166 C -2.8652477052486485 0.0009821895368980413 -2.817098079962066 -0.04798238004226432 -2.7576959546356337 -0.04798238004226432 L -1.982584676356729 -0.04798238004226432 Z" fill="#ffffff" transform="matrix(1,0,0,1,0,0)" fill-rule="nonzero" opacity="0.29"></path></g><g clip-path="url(&quot;#b0e62838e-f375-4f94-9ec8-0724518d95e7fef9a664-76fd-40fc-8590-7cf718e2f9b3&quot;)"><path d=" M -2.549535151902157 1.865020986760388 L -2.583971772265524 1.9748347301854992 C -2.583971772265524 1.9748347301854992 -2.5998631859708277 2.0065496455717247 -2.53099516924597 2.0041100366958613 C -2.4621323765229874 2.001670427819998 -0.8253063168729611 2.004240636742749 -0.8253063168729611 2.004240636742749 C -0.8253063168729611 2.004240636742749 -0.8014744203168815 2.0065496455717247 -0.8120634721185414 1.969955512433772 C -0.8226577479220771 1.9333457072901932 -0.8464896444781571 1.865020986760388 -0.8464896444781571 1.865020986760388 Z" fill="#bfc0c2" transform="matrix(1,0,0,1,0,0)" fill-rule="nonzero"></path></g><g clip-path="url(&quot;#b0e62838e-f375-4f94-9ec8-0724518d95e7fef9a664-76fd-40fc-8590-7cf718e2f9b3&quot;)"><path d=" M -2.5428118614883752 1.865020986760388 L -2.5769716097523396 1.9664763271846821 C -2.5769716097523396 1.9664763271846821 -2.592737647412631 1.995788201708173 -2.524418150884702 1.993531432897952 C -2.4560986543567727 1.9912798880896072 -0.8321915513448843 1.9936568089429647 -0.8321915513448843 1.9936568089429647 C -0.8321915513448843 1.9936568089429647 -0.8085424948544477 1.995788201708173 -0.8190531866279751 1.9619680135661164 C -0.8295638784015025 1.9281478254240598 -0.8532129348919395 1.865020986760388 -0.8532129348919395 1.865020986760388 Z" fill="#ffffff" transform="matrix(1,0,0,1,0,0)" fill-rule="nonzero"></path></g><g clip-path="url(&quot;#b0e62838e-f375-4f94-9ec8-0724518d95e7fef9a664-76fd-40fc-8590-7cf718e2f9b3&quot;)"><path d=" M -2.430417461136762 1.909952626891656 L -2.4526403651151845 1.909952626891656 L -2.4526403651151845 1.898099366636122 L -2.430417461136762 1.898099366636122 Z M -2.4181619527368134 1.8934186609556645 L -2.439930368552067 1.8934186609556645 L -2.439930368552067 1.8845692017785494 L -2.4181619527368134 1.8845692017785494 Z M -2.314799851627958 1.909952626891656 L -2.337022755606381 1.909952626891656 L -2.337022755606381 1.898099366636122 L -2.314799851627958 1.898099366636122 Z M -2.30254434322801 1.8934186609556645 L -2.3243127590432633 1.8934186609556645 L -2.3243127590432633 1.8845692017785494 L -2.30254434322801 1.8845692017785494 Z M -2.1982993858021933 1.909952626891656 L -2.2205222897806163 1.909952626891656 L -2.2205222897806163 1.898099366636122 L -2.1982993858021933 1.898099366636122 Z M -2.1860438774022453 1.8934186609556645 L -2.2078122932174984 1.8934186609556645 L -2.2078122932174984 1.8845692017785494 L -2.1860438774022453 1.8845692017785494 Z M -2.0782988387198364 1.909952626891656 L -2.100521742698259 1.909952626891656 L -2.100521742698259 1.898099366636122 L -2.0782988387198364 1.898099366636122 Z M -2.0660433303198884 1.8934186609556645 L -2.0878117461351415 1.8934186609556645 L -2.0878117461351415 1.8845692017785494 L -2.0660433303198884 1.8845692017785494 Z M -1.9626812292110332 1.909952626891656 L -1.9849041331894557 1.909952626891656 L -1.9849041331894557 1.898099366636122 L -1.9626812292110332 1.898099366636122 Z M -1.9504257208110847 1.8934186609556645 L -1.972194136626338 1.8934186609556645 L -1.972194136626338 1.8845692017785494 L -1.9504257208110847 1.8845692017785494 Z M -1.845318803075809 1.909952626891656 L -1.8675417070542315 1.909952626891656 L -1.8675417070542315 1.898099366636122 L -1.845318803075809 1.898099366636122 Z M -1.8330632946758607 1.8934186609556645 L -1.8548317104911138 1.8934186609556645 L -1.8548317104911138 1.8845692017785494 L -1.8330632946758607 1.8845692017785494 Z M -1.726201112310413 1.909952626891656 L -1.7484240162888358 1.909952626891656 L -1.7484240162888358 1.898099366636122 L -1.726201112310413 1.898099366636122 Z M -1.7139456039104652 1.8934186609556645 L -1.7357140197257181 1.8934186609556645 L -1.7357140197257181 1.8845692017785494 L -1.7139456039104652 1.8845692017785494 Z M -1.6245942758317296 1.909952626891656 L -1.646817179810152 1.909952626891656 L -1.646817179810152 1.898099366636122 L -1.6245942758317296 1.898099366636122 Z M -1.5939450568281082 1.8934186609556645 L -1.6157134726433613 1.8934186609556645 L -1.6157134726433613 1.8845692017785494 L -1.5939450568281082 1.8845692017785494 Z M -1.5037160964342866 1.909952626891656 L -1.5259390004127096 1.909952626891656 L -1.5259390004127096 1.898099366636122 L -1.5037160964342866 1.898099366636122 Z M -1.4730721014325407 1.8934186609556645 L -1.4948405172477939 1.8934186609556645 L -1.4948405172477939 1.8845692017785494 L -1.4730721014325407 1.8845692017785494 Z M -1.3915985681820755 1.909952626891656 L -1.4138214721604982 1.909952626891656 L -1.4138214721604982 1.898099366636122 L -1.3915985681820755 1.898099366636122 Z M -1.3609545731803292 1.8934186609556645 L -1.3827229889955823 1.8934186609556645 L -1.3827229889955823 1.8845692017785494 L -1.3609545731803292 1.8845692017785494 Z M -1.2742256940431003 1.909952626891656 L -1.296448598021523 1.909952626891656 L -1.296448598021523 1.898099366636122 L -1.2742256940431003 1.898099366636122 Z M -1.2435764750394787 1.8934186609556645 L -1.2653448908547318 1.8934186609556645 L -1.2653448908547318 1.8845692017785494 L -1.2435764750394787 1.8845692017785494 Z M -1.2186266420820397 1.916712485318567 L -1.2403950578972929 1.916712485318567 L -1.2403950578972929 1.9078630261414515 L -1.2186266420820397 1.9078630261414515 Z M -1.187094566761457 1.936250252332977 L -1.20886298257671 1.936250252332977 L -1.20886298257671 1.9274007931558619 L -1.187094566761457 1.9274007931558619 Z M -1.0999373194704358 1.916712485318567 L -1.121705735285689 1.916712485318567 L -1.121705735285689 1.9078630261414515 L -1.0999373194704358 1.9078630261414515 Z M -1.068405244149853 1.936250252332977 L -1.0901736599651062 1.936250252332977 L -1.0901736599651062 1.9274007931558619 L -1.068405244149853 1.9274007931558619 Z M -0.9895750558483964 1.9234775677473532 L -1.0113434716636491 1.9234775677473532 L -1.0113434716636491 1.9146228845683626 L -0.9895750558483964 1.9146228845683626 Z M -1.3359995162210148 1.916712485318567 L -1.3577679320362679 1.916712485318567 L -1.3577679320362679 1.9078630261414515 L -1.3359995162210148 1.9078630261414515 Z M -1.3044674409004318 1.936250252332977 L -1.326235856715685 1.936250252332977 L -1.326235856715685 1.9274007931558619 L -1.3044674409004318 1.9274007931558619 Z M -1.4481170444732259 1.916712485318567 L -1.469885460288479 1.916712485318567 L -1.469885460288479 1.9078630261414515 L -1.4481170444732259 1.9078630261414515 Z M -1.416584969152643 1.936250252332977 L -1.4383533849678962 1.936250252332977 L -1.4383533849678962 1.9274007931558619 L -1.416584969152643 1.9274007931558619 Z M -1.5689899998687933 1.916712485318567 L -1.5907584156840466 1.916712485318567 L -1.5907584156840466 1.9078630261414515 L -1.5689899998687933 1.9078630261414515 Z M -1.5374579245482107 1.936250252332977 L -1.5592263403634636 1.936250252332977 L -1.5592263403634636 1.9274007931558619 L -1.5374579245482107 1.9274007931558619 Z M -1.6889905469511504 1.916712485318567 L -1.7107589627664035 1.916712485318567 L -1.7107589627664035 1.9078630261414515 L -1.6889905469511504 1.9078630261414515 Z M -1.6574584716305676 1.936250252332977 L -1.6792268874458207 1.936250252332977 L -1.6792268874458207 1.9274007931558619 L -1.6574584716305676 1.9274007931558619 Z M -1.8019804835165718 1.916712485318567 L -1.8237488993318252 1.916712485318567 L -1.8237488993318252 1.9078630261414515 L -1.8019804835165718 1.9078630261414515 Z M -1.7704484081959893 1.936250252332977 L -1.7922168240112424 1.936250252332977 L -1.7922168240112424 1.9274007931558619 L -1.7704484081959893 1.9274007931558619 Z M -1.9149704200819935 1.916712485318567 L -1.9367388358972466 1.916712485318567 L -1.9367388358972466 1.9078630261414515 L -1.9149704200819935 1.9078630261414515 Z M -1.8834383447614107 1.936250252332977 L -1.905206760576664 1.936250252332977 L -1.905206760576664 1.9274007931558619 L -1.8834383447614107 1.9274007931558619 Z M -2.0262050920172436 1.916712485318567 L -2.0479735078324968 1.916712485318567 L -2.0479735078324968 1.9078630261414515 L -2.0262050920172436 1.9078630261414515 Z M -1.9946730166966606 1.936250252332977 L -2.0164414325119138 1.936250252332977 L -2.0164414325119138 1.9274007931558619 L -1.9946730166966606 1.9274007931558619 Z M -2.1374397639524934 1.916712485318567 L -2.159208179767747 1.916712485318567 L -2.159208179767747 1.9078630261414515 L -2.1374397639524934 1.9078630261414515 Z M -2.105907688631911 1.936250252332977 L -2.127676104447164 1.936250252332977 L -2.127676104447164 1.9274007931558619 L -2.105907688631911 1.9274007931558619 Z M -2.2591851276612713 1.916712485318567 L -2.2809535434765245 1.916712485318567 L -2.2809535434765245 1.9078630261414515 L -2.2591851276612713 1.9078630261414515 Z M -2.2276530523406883 1.936250252332977 L -2.2494214681559415 1.936250252332977 L -2.2494214681559415 1.9274007931558619 L -2.2276530523406883 1.9274007931558619 Z M -2.380930491370049 1.916712485318567 L -2.402698907185302 1.916712485318567 L -2.402698907185302 1.9078630261414515 L -2.380930491370049 1.9078630261414515 Z M -2.349398416049466 1.936250252332977 L -2.371166831864719 1.936250252332977 L -2.371166831864719 1.9274007931558619 L -2.349398416049466 1.9274007931558619 Z M -2.293788916084654 1.953160346404005 L -2.315557331899907 1.953160346404005 L -2.315557331899907 1.94431088722689 L -2.293788916084654 1.94431088722689 Z M -2.180140755282918 1.953160346404005 L -2.2019091710981713 1.953160346404005 L -2.2019091710981713 1.94431088722689 L -2.180140755282918 1.94431088722689 Z M -2.0664925944811823 1.953160346404005 L -2.0882610102964354 1.953160346404005 L -2.0882610102964354 1.94431088722689 L -2.0664925944811823 1.94431088722689 Z M -2.0658134742373657 1.9711936008782684 L -2.087581890052619 1.9711936008782684 L -2.087581890052619 1.962344141701153 L -2.0658134742373657 1.962344141701153 Z M -2.223703706922802 1.9711936008782684 L -2.2454721227380556 1.9711936008782684 L -2.2454721227380556 1.962344141701153 L -2.223703706922802 1.962344141701153 Z M -2.3767669618752665 1.9847237657358412 L -2.3985353776905196 1.9847237657358412 L -2.3985353776905196 1.9758743065587256 L -2.3767669618752665 1.9758743065587256 Z M -2.3684503508894537 1.9711936008782684 L -2.390218766704707 1.9711936008782684 L -2.390218766704707 1.962344141701153 L -2.3684503508894537 1.962344141701153 Z M -1.9528444336794464 1.953160346404005 L -1.9746128494946995 1.953160346404005 L -1.9746128494946995 1.94431088722689 L -1.9528444336794464 1.94431088722689 Z M -1.839201496879586 1.953160346404005 L -1.8609699126948391 1.953160346404005 L -1.8609699126948391 1.94431088722689 L -1.839201496879586 1.94431088722689 Z M -1.7142799400304978 1.953160346404005 L -1.7360483558457511 1.953160346404005 L -1.7360483558457511 1.94431088722689 L -1.7142799400304978 1.94431088722689 Z M -1.6006370032306374 1.953160346404005 L -1.6224054190458905 1.953160346404005 L -1.6224054190458905 1.94431088722689 L -1.6006370032306374 1.94431088722689 Z M -1.4730721014325407 1.953160346404005 L -1.4948405172477939 1.953160346404005 L -1.4948405172477939 1.94431088722689 L -1.4730721014325407 1.94431088722689 Z M -1.4730721014325407 1.9695062482724786 L -1.4948405172477939 1.9695062482724786 L -1.4948405172477939 1.960656789095363 L -1.4730721014325407 1.960656789095363 Z M -1.3567962676874228 1.953160346404005 L -1.378564683502676 1.953160346404005 L -1.378564683502676 1.94431088722689 L -1.3567962676874228 1.94431088722689 Z M -1.3318412107281081 1.9666852872597023 L -1.3536096265433613 1.9666852872597023 L -1.3536096265433613 1.9578358280825876 L -1.3318412107281081 1.9578358280825876 Z M -1.3318412107281081 1.980215452117275 L -1.3536096265433613 1.980215452117275 L -1.3536096265433613 1.9713659929401603 L -1.3318412107281081 1.9713659929401603 Z M -1.2385614332389887 1.9497751931886742 L -1.2603298490542418 1.9497751931886742 L -1.2603298490542418 1.940925734011559 L -1.2385614332389887 1.940925734011559 Z M -1.2061465016014448 1.9695062482724786 L -1.2279149174166977 1.9695062482724786 L -1.2279149174166977 1.960656789095363 L -1.2061465016014448 1.960656789095363 Z M -1.2061465016014448 1.980215452117275 L -1.2279149174166977 1.980215452117275 L -1.2279149174166977 1.9713659929401603 L -1.2061465016014448 1.9713659929401603 Z M -1.1196579265504887 1.9497751931886742 L -1.1414263423657418 1.9497751931886742 L -1.1414263423657418 1.940925734011559 L -1.1196579265504887 1.940925734011559 Z M -1.0872429949129447 1.9695062482724786 L -1.1090114107281979 1.9695062482724786 L -1.1090114107281979 1.960656789095363 L -1.0872429949129447 1.960656789095363 Z M -1.0872429949129447 1.980215452117275 L -1.1090114107281979 1.980215452117275 L -1.1090114107281979 1.9713659929401603 L -1.0872429949129447 1.9713659929401603 Z M -0.9703089369315125 1.9734503696884889 L -0.9920773527467657 1.9734503696884889 L -0.9920773527467657 1.9646009105113738 L -0.9703089369315125 1.9646009105113738 Z M -1.1533527386475333 1.909952626891656 L -1.175575642625956 1.909952626891656 L -1.175575642625956 1.898099366636122 L -1.1533527386475333 1.898099366636122 Z M -1.1227035196439117 1.8934186609556645 L -1.1444719354591648 1.8934186609556645 L -1.1444719354591648 1.8845692017785494 L -1.1227035196439117 1.8845692017785494 Z M -1.0430009230292443 1.909952626891656 L -1.0652238270076673 1.909952626891656 L -1.0652238270076673 1.898099366636122 L -1.0430009230292443 1.898099366636122 Z M -1.0042545011185813 1.8934186609556645 L -1.0260229169338344 1.8934186609556645 L -1.0260229169338344 1.8845692017785494 L -1.0042545011185813 1.8845692017785494 Z" fill="#abaaaa" transform="matrix(1,0,0,1,0,0)" fill-rule="nonzero" stroke-dasharray="none" stroke-miterlimit="10" stroke-linejoin="miter" stroke-linecap="butt" stroke-width="0.013692108915713626" stroke="#abaaaa"></path></g><g clip-path="url(&quot;#b0e62838e-f375-4f94-9ec8-0724518d95e7fef9a664-76fd-40fc-8590-7cf718e2f9b3&quot;)"><path d=" M -2.533931058300007 1.9130922520188376 L -2.4743774369191844 1.9130922520188376" fill="none" transform="matrix(1,0,0,1,0,0)" fill-rule="nonzero" stroke-dasharray="none" stroke-miterlimit="10" stroke-linejoin="miter" stroke-linecap="butt" stroke-width="0.013692108915713626" stroke="#abaaaa"></path></g><g clip-path="url(&quot;#b0e62838e-f375-4f94-9ec8-0724518d95e7fef9a664-76fd-40fc-8590-7cf718e2f9b3&quot;)"><path d=" M -2.5444417500735343 1.9283045454803247 L -2.4848881286927123 1.9283045454803247" fill="none" transform="matrix(1,0,0,1,0,0)" fill-rule="nonzero" stroke-dasharray="none" stroke-miterlimit="10" stroke-linejoin="miter" stroke-linecap="butt" stroke-width="0.013692108915713626" stroke="#abaaaa"></path></g><g clip-path="url(&quot;#b0e62838e-f375-4f94-9ec8-0724518d95e7fef9a664-76fd-40fc-8590-7cf718e2f9b3&quot;)"><path d=" M -2.557580114790444 1.9460557038533106 L -2.498026493409622 1.9460557038533106" fill="none" transform="matrix(1,0,0,1,0,0)" fill-rule="nonzero" stroke-dasharray="none" stroke-miterlimit="10" stroke-linejoin="miter" stroke-linecap="butt" stroke-width="0.013692108915713626" stroke="#abaaaa"></path></g><g clip-path="url(&quot;#b0e62838e-f375-4f94-9ec8-0724518d95e7fef9a664-76fd-40fc-8590-7cf718e2f9b3&quot;)"><path d=" M -2.476122253545605 1.9460557038533106 L -2.416568632164783 1.9460557038533106" fill="none" transform="matrix(1,0,0,1,0,0)" fill-rule="nonzero" stroke-dasharray="none" stroke-miterlimit="10" stroke-linejoin="miter" stroke-linecap="butt" stroke-width="0.013692108915713626" stroke="#abaaaa"></path></g><g clip-path="url(&quot;#b0e62838e-f375-4f94-9ec8-0724518d95e7fef9a664-76fd-40fc-8590-7cf718e2f9b3&quot;)"><path d=" M -2.5637078689904182 1.965614366875223 L -2.466494418089039 1.965614366875223" fill="none" transform="matrix(1,0,0,1,0,0)" fill-rule="nonzero" stroke-dasharray="none" stroke-miterlimit="10" stroke-linejoin="miter" stroke-linecap="butt" stroke-width="0.013692108915713626" stroke="#abaaaa"></path></g><g clip-path="url(&quot;#b0e62838e-f375-4f94-9ec8-0724518d95e7fef9a664-76fd-40fc-8590-7cf718e2f9b3&quot;)"><path d=" M -2.533931058300007 1.9130922520188376 L -2.4743774369191844 1.9130922520188376" fill="none" transform="matrix(1,0,0,1,0,0)" fill-rule="nonzero" stroke-dasharray="none" stroke-miterlimit="10" stroke-linejoin="miter" stroke-linecap="butt" stroke-width="0.013692108915713626" stroke="#abaaaa"></path></g><g clip-path="url(&quot;#b0e62838e-f375-4f94-9ec8-0724518d95e7fef9a664-76fd-40fc-8590-7cf718e2f9b3&quot;)"><path d=" M -2.5444417500735343 1.9283045454803247 L -2.4848881286927123 1.9283045454803247" fill="none" transform="matrix(1,0,0,1,0,0)" fill-rule="nonzero" stroke-dasharray="none" stroke-miterlimit="10" stroke-linejoin="miter" stroke-linecap="butt" stroke-width="0.013692108915713626" stroke="#abaaaa"></path></g><g clip-path="url(&quot;#b0e62838e-f375-4f94-9ec8-0724518d95e7fef9a664-76fd-40fc-8590-7cf718e2f9b3&quot;)"><path d=" M -2.557580114790444 1.9460557038533106 L -2.498026493409622 1.9460557038533106" fill="none" transform="matrix(1,0,0,1,0,0)" fill-rule="nonzero" stroke-dasharray="none" stroke-miterlimit="10" stroke-linejoin="miter" stroke-linecap="butt" stroke-width="0.013692108915713626" stroke="#abaaaa"></path></g><g clip-path="url(&quot;#b0e62838e-f375-4f94-9ec8-0724518d95e7fef9a664-76fd-40fc-8590-7cf718e2f9b3&quot;)"><path d=" M -2.476122253545605 1.9460557038533106 L -2.416568632164783 1.9460557038533106" fill="none" transform="matrix(1,0,0,1,0,0)" fill-rule="nonzero" stroke-dasharray="none" stroke-miterlimit="10" stroke-linejoin="miter" stroke-linecap="butt" stroke-width="0.013692108915713626" stroke="#abaaaa"></path></g><g clip-path="url(&quot;#b0e62838e-f375-4f94-9ec8-0724518d95e7fef9a664-76fd-40fc-8590-7cf718e2f9b3&quot;)"><path d=" M -2.5637078689904182 1.965614366875223 L -2.466494418089039 1.965614366875223" fill="none" transform="matrix(1,0,0,1,0,0)" fill-rule="nonzero" stroke-dasharray="none" stroke-miterlimit="10" stroke-linejoin="miter" stroke-linecap="butt" stroke-width="0.013692108915713626" stroke="#abaaaa"></path></g><g clip-path="url(&quot;#b0e62838e-f375-4f94-9ec8-0724518d95e7fef9a664-76fd-40fc-8590-7cf718e2f9b3&quot;)"><path d=" M -0.9143964448579214 1.9130922520188376 L -0.9739500662387435 1.9130922520188376" fill="none" transform="matrix(1,0,0,1,0,0)" fill-rule="nonzero" stroke-dasharray="none" stroke-miterlimit="10" stroke-linejoin="miter" stroke-linecap="butt" stroke-width="0.013692108915713626" stroke="#abaaaa"></path></g><g clip-path="url(&quot;#b0e62838e-f375-4f94-9ec8-0724518d95e7fef9a664-76fd-40fc-8590-7cf718e2f9b3&quot;)"><path d=" M -0.9038909770862691 1.9283045454803247 L -0.9634445984670912 1.9283045454803247" fill="none" transform="matrix(1,0,0,1,0,0)" fill-rule="nonzero" stroke-dasharray="none" stroke-miterlimit="10" stroke-linejoin="miter" stroke-linecap="butt" stroke-width="0.013692108915713626" stroke="#abaaaa"></path></g><g clip-path="url(&quot;#b0e62838e-f375-4f94-9ec8-0724518d95e7fef9a664-76fd-40fc-8590-7cf718e2f9b3&quot;)"><path d=" M -0.8907526123693597 1.9460557038533106 L -0.950306233750182 1.9460557038533106" fill="none" transform="matrix(1,0,0,1,0,0)" fill-rule="nonzero" stroke-dasharray="none" stroke-miterlimit="10" stroke-linejoin="miter" stroke-linecap="butt" stroke-width="0.013692108915713626" stroke="#abaaaa"></path></g><g clip-path="url(&quot;#b0e62838e-f375-4f94-9ec8-0724518d95e7fef9a664-76fd-40fc-8590-7cf718e2f9b3&quot;)"><path d=" M -0.9722104736141985 1.9460557038533106 L -1.0317640949950209 1.9460557038533106" fill="none" transform="matrix(1,0,0,1,0,0)" fill-rule="nonzero" stroke-dasharray="none" stroke-miterlimit="10" stroke-linejoin="miter" stroke-linecap="butt" stroke-width="0.013692108915713626" stroke="#abaaaa"></path></g><g clip-path="url(&quot;#b0e62838e-f375-4f94-9ec8-0724518d95e7fef9a664-76fd-40fc-8590-7cf718e2f9b3&quot;)"><path d=" M -0.8846196341675101 1.965614366875223 L -0.9818330850688894 1.965614366875223" fill="none" transform="matrix(1,0,0,1,0,0)" fill-rule="nonzero" stroke-dasharray="none" stroke-miterlimit="10" stroke-linejoin="miter" stroke-linecap="butt" stroke-width="0.013692108915713626" stroke="#abaaaa"></path></g><g clip-path="url(&quot;#b0e62838e-f375-4f94-9ec8-0724518d95e7fef9a664-76fd-40fc-8590-7cf718e2f9b3&quot;)"><path d=" M -1.7270003845973665 1.4588914089525575 C -1.7040983603751274 1.4588914089525575 -1.6855322577095624 1.4402887382738636 -1.6855322577095624 1.4173449220366208 C -1.6855322577095624 1.3944011057993775 -1.7040983603751274 1.375798435120684 -1.7270003845973665 1.375798435120684 C -1.7499024088196056 1.375798435120684 -1.7684685114851706 1.3944011057993775 -1.7684685114851706 1.4173449220366208 C -1.7684685114851706 1.4402887382738636 -1.7499024088196056 1.4588914089525575 -1.7270003845973665 1.4588914089525575" fill="#9a9898" transform="matrix(1,0,0,1,0,0)" fill-rule="nonzero"></path></g><g clip-path="url(&quot;#b0e62838e-f375-4f94-9ec8-0724518d95e7fef9a664-76fd-40fc-8590-7cf718e2f9b3&quot;)"><path d=" M -1.638704304897484 1.4128104884086774 L -1.511923003380714 1.4128104884086774" fill="none" transform="matrix(1,0,0,1,0,0)" fill-rule="nonzero" stroke-dasharray="none" stroke-miterlimit="10" stroke-linejoin="miter" stroke-linecap="butt" stroke-width="0.010448003751021463" stroke="#9a9898"></path></g><g clip-path="url(&quot;#b0e62838e-f375-4f94-9ec8-0724518d95e7fef9a664-76fd-40fc-8590-7cf718e2f9b3&quot;)"><path d=" M -1.9420829898158942 1.4128104884086774 L -1.8153016882991242 1.4128104884086774" fill="none" transform="matrix(1,0,0,1,0,0)" fill-rule="nonzero" stroke-dasharray="none" stroke-miterlimit="10" stroke-linejoin="miter" stroke-linecap="butt" stroke-width="0.010448003751021463" stroke="#9a9898"></path></g><g clip-path="url(&quot;#b0e62838e-f375-4f94-9ec8-0724518d95e7fef9a664-76fd-40fc-8590-7cf718e2f9b3&quot;)"><path d=" M -1.7528382978736423 0.642453051836487 L -1.7755888260414916 0.6640908676048526 L -1.699381086681541 0.7402202469366703 L -1.6778320789450594 0.7174749427706967 Z M -1.3733302336234143 0.44434322871149357 L -1.424786652097195 0.49579964718527425 L -1.4948561892534205 0.5035938579835363 L -1.5389728850921087 0.45948238614672365 L -1.5311682262900956 0.38940762498862275 L -1.4797274798219415 0.33795643051671753 C -1.521299057159483 0.33079595806487244 -1.5637550170959196 0.344310696069058 -1.593537584681818 0.37418488352338447 C -1.6322526625812281 0.4128895134190435 -1.6414207858727494 0.4700244219315043 -1.6210576265620087 0.5174426869555152 L -1.7391827569710574 0.629523647194598 L -1.6648974503012948 0.7038037298624851 L -1.5528164900622121 0.5856785994534364 C -1.5054034490400767 0.6060469827660527 -1.4482633165257404 0.5968736354726558 -1.4095586866300813 0.5581637815751214 C -1.37968662245015 0.528375607835906 -1.366172528380529 0.4859177734323151 -1.3733302336234143 0.44434322871149357 M -1.7908167915086053 0.6785874728093948 L -2.085769161401817 0.9584111332711273 C -2.105771864583147 0.9784033884487066 -2.105771864583147 1.0107869760749977 -2.085769161401817 1.030868039284461 L -2.066142586355523 1.0504058062988713 C -2.0462443632117027 1.0703980614764506 -2.0137771915554032 1.0703980614764506 -1.993784936377824 1.0504058062988713 L -1.7139664999179671 0.7554482124037841 Z M -2.006442692922186 1.0137176411271591 C -2.0182313299086374 1.0254620153187117 -2.0372975832455293 1.0254620153187117 -2.04908622023198 1.0137176411271591 C -2.0608245524462534 1.0018852768791273 -2.0608245524462534 0.982807222029762 -2.04908622023198 0.9710688898154894 C -2.037259079985824 0.9592417495693332 -2.018181025136459 0.9592417495693332 -2.006442692922186 0.9710688898154894 C -1.9946103286741546 0.982807222029762 -1.9946103286741546 1.0018852768791273 -2.006442692922186 1.0137176411271591" fill="#302c2d" transform="matrix(1,0,0,1,0,0)" fill-rule="nonzero"></path></g><g clip-path="url(&quot;#b0e62838e-f375-4f94-9ec8-0724518d95e7fef9a664-76fd-40fc-8590-7cf718e2f9b3&quot;)"><path d=" M -1.3567283556630414 0.9795056528444396 L -1.4379877048366108 1.0607650020180093 C -1.4449669713422932 1.0678278525536995 -1.4574366638191372 1.0667308121598422 -1.4656905867824443 1.0584716651946597 C -1.4699063562959813 1.054250671679247 -1.4722101411230815 1.0491207018374955 -1.472664629286251 1.044074316025752 C -1.472931053381902 1.0403130346753846 -1.4722101411230815 1.0365517533250168 -1.4702772604291428 1.033433024205337 C -1.4721464725789468 1.0321217441013553 -1.4738963337523945 1.0306480847914488 -1.4755064863065288 1.0290291906242812 L -1.6519575976556549 0.8526616633051635 C -1.6670079470590011 0.837527729871809 -1.6830665288243212 0.8329410562251105 -1.686817362170938 0.8319328238631369 C -1.6870002022365809 0.8319328238631369 -1.6872770743359828 0.8319328238631369 -1.6874546903997503 0.8318440158312533 C -1.6875382744297582 0.8318440158312533 -1.6875382744297582 0.8317499837974941 -1.6876479784691443 0.8317499837974941 C -1.691872152794056 0.8307411824084644 -1.6957200750230694 0.8285462536193285 -1.6987385344508534 0.8254237175262505 C -1.7029595279662662 0.8212915320427217 -1.7052476407877397 0.8160727541690864 -1.7057073529527846 0.8111204003911022 C -1.7060730330840705 0.8060687905774833 -1.7046103125589276 0.8011164367994992 -1.7011206793060862 0.7976268035466579 L -1.6714953646700652 0.7681007449462712 L -1.6993810866815413 0.7402202469366704 L -1.7755888260414918 0.6640908676048527 L -2.077698078504153 0.36198161514219157 L -2.091818555573658 0.32813530699075755 L -2.055501294535108 0.3397848311731465 L -1.7528382978736425 0.6424530518364873 L -1.677826854943184 0.7174749427706969 L -1.6493978367366546 0.7459091849791017 L -1.6197672980987579 0.7163726783749641 C -1.612803703598702 0.7093098278392735 -1.6003183391162314 0.7104068682331308 -1.5920696401548 0.7186660151983133 C -1.588214326770673 0.722610136614324 -1.5859262139491992 0.7272856182929059 -1.5852836617185115 0.7319663239733637 C -1.5839985572571358 0.7368246457175887 -1.5795999476779559 0.7493883702281919 -1.5683161036268527 0.7620461267725545 L -1.3884589430548935 0.9418980633426378 C -1.3868653325139817 0.9435646597928158 -1.3853935947129743 0.9453436643233337 -1.3840551094738378 0.9472213212537833 C -1.3769086749081392 0.9427286796408441 -1.3663561911196078 0.9444734962672646 -1.3590216924863907 0.9517191868685979 C -1.3507677695230835 0.9600619178637887 -1.3496655051273507 0.9724428023087489 -1.3567283556630414 0.9795056528444396" fill="#302c2d" transform="matrix(1,0,0,1,0,0)" fill-rule="nonzero"></path></g></g></g><defs><linearGradient id="gradient-677f2694-d005-4f33-b289-ad3c54e017fe" x1="0" y1="0" x2="1" y2="1"><stop stop-color="#aac527" offset="0"></stop><stop stop-color="#343432" offset="1"></stop></linearGradient><clipPath id="SvgjsClipPath1002"><path d=" M -2.8652477052486485 -0.04820178812103537 h 2.4652477052486486 v 2.0715285762420708 h -2.4652477052486486 Z"></path></clipPath><clipPath id="c0e62838e-f375-4f94-9ec8-0724518d95e7fef9a664-76fd-40fc-8590-7cf718e2f9b3"><path d=" M -1.8564720470800242 -0.053425789996546263 L -0.39478065030649523 -0.053425789996546263 L -0.39478065030649523 1.815361624931783 L -1.8564720470800242 1.815361624931783 Z"></path></clipPath><clipPath id="e0e62838e-f375-4f94-9ec8-0724518d95e7fef9a664-76fd-40fc-8590-7cf718e2f9b3"><path d=" M -2.5786850823675076 1.8736301418512298 L -0.7868054230504469 1.8736301418512298 L -0.7868054230504469 2.0285531414713764 L -2.5786798583656316 2.0285531414713764 Z"></path></clipPath><clipPath id="d0e62838e-f375-4f94-9ec8-0724518d95e7fef9a664-76fd-40fc-8590-7cf718e2f9b3"><path d=" M -2.5786850823675076 1.8736301418512298 L -0.7868054230504469 1.8736301418512298 L -0.7868054230504469 2.0285531414713764 L -2.5786798583656316 2.0285531414713764 Z"></path></clipPath><clipPath id="b0e62838e-f375-4f94-9ec8-0724518d95e7fef9a664-76fd-40fc-8590-7cf718e2f9b3"><path d=" M -2.870471707124159 -0.053425789996546263 L -0.39478065030649523 -0.053425789996546263 L -0.39478065030649523 2.0285531414713764 L -2.870471707124159 2.0285531414713764 Z"></path></clipPath><clipPath id="f0e62838e-f375-4f94-9ec8-0724518d95e7fef9a664-76fd-40fc-8590-7cf718e2f9b3"><path d=" M -1.719550957922888 1.5384216135053328 L -1.3242559600048667 1.5384216135053328 L -1.3242559600048667 1.8122690158214807 L -1.719550957922888 1.8122690158214807 Z"></path></clipPath><clipPath id="g0e62838e-f375-4f94-9ec8-0724518d95e7fef9a664-76fd-40fc-8590-7cf718e2f9b3"><path d=" M -2.870471707124159 -0.053211605919650316 L -1.977360674481218 -0.053211605919650316 L -1.977360674481218 1.567587215976309 L -2.870471707124159 1.567587215976309 Z"></path></clipPath></defs></svg>